<?xml version="1.0" encoding="iso-8859-1"?>
<!-- Generator: Adobe Illustrator 19.0.0, SVG Export Plug-In . SVG Version: 6.00 Build 0)  -->
<svg version="1.1" id="Layer_1" xmlns="http://www.w3.org/2000/svg" xmlns:xlink="http://www.w3.org/1999/xlink" x="0px" y="0px"
	 viewBox="0 0 512 512" style="enable-background:new 0 0 512 512;" xml:space="preserve">
<rect style="fill:#88888F;" width="73.143" height="73.143"/>
<rect x="438.857" style="fill:#797781;" width="73.143" height="73.143"/>
<rect y="219.429" style="fill:#88888F;" width="73.143" height="73.143"/>
<rect x="438.857" y="219.429" style="fill:#797781;" width="73.143" height="73.143"/>
<g>
	<rect x="219.429" y="219.429" style="fill:#88888F;" width="73.143" height="73.143"/>
	<rect x="219.429" style="fill:#88888F;" width="73.143" height="73.143"/>
	<rect x="219.429" y="438.857" style="fill:#88888F;" width="73.143" height="73.143"/>
</g>
<g>
	<rect x="256" y="219.429" style="fill:#797781;" width="36.571" height="73.143"/>
	<rect x="256" style="fill:#797781;" width="36.571" height="73.143"/>
	<rect x="256" y="438.857" style="fill:#797781;" width="36.571" height="73.143"/>
</g>
<rect y="438.857" style="fill:#88888F;" width="73.143" height="73.143"/>
<rect x="438.857" y="438.857" style="fill:#797781;" width="73.143" height="73.143"/>
<rect id="SVGCleanerId_0" x="156.038" y="18.286" style="fill:#88888F;" width="36.571" height="36.571"/>
<rect id="SVGCleanerId_1" x="101.181" y="18.286" style="fill:#88888F;" width="36.571" height="36.571"/>
<rect id="SVGCleanerId_2" x="374.248" y="18.286" style="fill:#797781;" width="36.571" height="36.571"/>
<rect id="SVGCleanerId_3" x="319.391" y="18.286" style="fill:#797781;" width="36.571" height="36.571"/>
<g>
	<rect id="SVGCleanerId_0_1_" x="156.038" y="18.286" style="fill:#88888F;" width="36.571" height="36.571"/>
</g>
<g>
	<rect id="SVGCleanerId_1_1_" x="101.181" y="18.286" style="fill:#88888F;" width="36.571" height="36.571"/>
</g>
<g>
	<rect id="SVGCleanerId_2_1_" x="374.248" y="18.286" style="fill:#797781;" width="36.571" height="36.571"/>
</g>
<g>
	<rect id="SVGCleanerId_3_1_" x="319.391" y="18.286" style="fill:#797781;" width="36.571" height="36.571"/>
</g>
<g>
	<rect x="18.286" y="319.391" style="fill:#88888F;" width="36.571" height="36.571"/>
	<rect x="18.286" y="374.248" style="fill:#88888F;" width="36.571" height="36.571"/>
	<rect x="18.286" y="101.181" style="fill:#88888F;" width="36.571" height="36.571"/>
	<rect x="18.286" y="156.038" style="fill:#88888F;" width="36.571" height="36.571"/>
</g>
<g>
	<rect x="319.391" y="457.143" style="fill:#797781;" width="36.571" height="36.571"/>
	<rect x="374.248" y="457.143" style="fill:#797781;" width="36.571" height="36.571"/>
</g>
<g>
	<rect x="101.181" y="457.143" style="fill:#88888F;" width="36.571" height="36.571"/>
	<rect x="156.038" y="457.143" style="fill:#88888F;" width="36.571" height="36.571"/>
</g>
<g>
	<rect x="457.143" y="156.038" style="fill:#797781;" width="36.571" height="36.571"/>
	<rect x="457.143" y="101.181" style="fill:#797781;" width="36.571" height="36.571"/>
	<rect x="457.143" y="374.248" style="fill:#797781;" width="36.571" height="36.571"/>
	<rect x="457.143" y="319.391" style="fill:#797781;" width="36.571" height="36.571"/>
</g>
<g>
</g>
<g>
</g>
<g>
</g>
<g>
</g>
<g>
</g>
<g>
</g>
<g>
</g>
<g>
</g>
<g>
</g>
<g>
</g>
<g>
</g>
<g>
</g>
<g>
</g>
<g>
</g>
<g>
</g>
</svg>
