<?xml version="1.0" encoding="utf-8"?>
<!-- Generator: Adobe Illustrator 16.0.0, SVG Export Plug-In . SVG Version: 6.00 Build 0)  -->
<!DOCTYPE svg PUBLIC "-//W3C//DTD SVG 1.1//EN" "http://www.w3.org/Graphics/SVG/1.1/DTD/svg11.dtd">
<svg version="1.1" id="Layer_1" xmlns="http://www.w3.org/2000/svg" xmlns:xlink="http://www.w3.org/1999/xlink" x="0px" y="0px"
	 width="512px" height="512px" viewBox="0 0 512 512" enable-background="new 0 0 512 512" xml:space="preserve">
<path d="M11.515,64.097v137.771c0.025,11.963,5.315,23.306,14.459,31.019c9.144,7.707,21.225,11.002,33.014,9.008
	C78.8,237.941,92.98,220.422,92.72,200.22v-49.318l267.495,267.495h-50.966c-10.718-0.08-21.008,4.188-28.528,11.826
	c-8.624,8.432-13.004,20.295-11.926,32.313c2.36,21.311,20.524,37.35,41.966,37.064h160.891
	c14.942-0.019,27.048-12.123,27.066-27.065V311.78c0.26-20.202-13.921-37.722-33.732-41.674
	c-11.789-1.995-23.869,1.301-33.013,9.007c-9.145,7.713-14.435,19.057-14.46,31.019v50.967L150.018,93.604h50.966
	c10.717,0.074,21.007-4.188,28.528-11.826c8.623-8.432,13.003-20.295,11.925-32.313c-2.36-21.311-20.524-37.35-41.965-37.065H38.581
	c-14.942,0.019-27.047,12.124-27.066,27.066V64.097z M38.581,39.465h160.891c7.372-0.267,13.803,4.993,14.992,12.278
	c0.396,4.07-1.115,8.091-4.083,10.891c-2.472,2.527-5.867,3.934-9.398,3.903h-83.639c-5.47,0-10.401,3.295-12.495,8.351
	c-2.094,5.055-0.942,10.878,2.93,14.75l313.698,313.697c3.872,3.872,9.695,5.024,14.751,2.931c5.055-2.094,8.351-7.025,8.351-12.495
	v-83.64c0.024-3.995,1.803-7.787,4.869-10.352c3.066-2.571,7.105-3.655,11.046-2.974c6.783,1.734,11.43,7.973,11.157,14.974v160.755
	H310.761c-7.372,0.266-13.803-4.993-14.992-12.279c-0.391-4.069,1.115-8.097,4.095-10.896c2.466-2.521,5.854-3.928,9.386-3.896
	h83.639c5.471,0,10.401-3.296,12.495-8.352c2.095-5.055,0.942-10.878-2.93-14.75L88.755,108.664
	c-3.872-3.872-9.695-5.024-14.75-2.93s-8.351,7.025-8.351,12.495v81.998c0.273,6.994-4.374,13.233-11.157,14.974
	c-3.958,0.737-8.035-0.366-11.077-2.999c-3.054-2.565-4.826-6.344-4.838-10.333V39.465z"/>
</svg>
