<svg id="Layer_1" data-name="Layer 1" xmlns="http://www.w3.org/2000/svg" xmlns:xlink="http://www.w3.org/1999/xlink" viewBox="0 0 800 448"><defs><style>.cls-1{fill:none;clip-rule:evenodd;}.cls-2{fill:#b3b3b3;}.cls-3{fill:#147dc8;}.cls-10,.cls-11,.cls-13,.cls-14,.cls-15,.cls-16,.cls-17,.cls-18,.cls-19,.cls-20,.cls-21,.cls-22,.cls-3,.cls-30,.cls-31,.cls-32,.cls-34,.cls-4,.cls-7,.cls-8,.cls-9{fill-rule:evenodd;}.cls-12,.cls-4{fill:#102b6e;}.cls-5{clip-path:url(#clip-path);}.cls-6{fill:url(#linear-gradient);}.cls-29,.cls-7{fill:#00adee;}.cls-33,.cls-8{fill:#fff;}.cls-25,.cls-9{fill:#425ff0;}.cls-10{fill:#2242e2;}.cls-11{fill:#f7aaac;}.cls-13{fill:#899fcc;}.cls-14{fill:#eb8e91;}.cls-15{fill:#363653;}.cls-16{fill:#1a47b6;}.cls-17{fill:#f0f5f9;}.cls-18{fill:#992842;}.cls-19{fill:#ba3954;}.cls-20{fill:#efd817;}.cls-21{fill:#1f3eda;}.cls-22{fill:#b2defc;}.cls-23{clip-path:url(#clip-path-2);}.cls-24{fill:url(#linear-gradient-2);}.cls-26{fill:#2b3b8f;}.cls-27{fill:#ee4354;}.cls-28,.cls-34{fill:#6698ff;}.cls-30{fill:#a5dbfd;}.cls-31{fill:#e4f5fb;}.cls-32{fill:#fca700;}.cls-35{fill:#b9e1ff;}</style><clipPath id="clip-path"><path class="cls-1" d="M740.46,112.6H331.64c-2.95,0-4.55,2.52-5.36,5.35L254.94,369.14c-.81,2.84,2.41,5.36,5.36,5.36H682.84c2.94,0,4.7-2.49,5.35-5.36L745.82,118c.65-2.87-2.41-5.35-5.36-5.35"/></clipPath><linearGradient id="linear-gradient" x1="500.85" y1="348.02" x2="499.77" y2="141.41" gradientUnits="userSpaceOnUse"><stop offset="0" stop-color="#1e9df8"/><stop offset="1" stop-color="#b9e4ff"/></linearGradient><clipPath id="clip-path-2"><path class="cls-1" d="M342,69.85h96.76a5.73,5.73,0,0,1,5.77,7q-4.38,25.16-8.74,50.28t-8.74,50.27a8.7,8.7,0,0,1-8.22,7H322.11a5.72,5.72,0,0,1-5.76-7q4.36-25.14,8.74-50.27t8.74-50.28a8.69,8.69,0,0,1,8.2-7"/></clipPath><linearGradient id="linear-gradient-2" x1="380.46" y1="314.06" x2="380.46" y2="88.34" gradientUnits="userSpaceOnUse"><stop offset="0" stop-color="#1e9df8"/><stop offset="0.12" stop-color="#41acf9"/><stop offset="0.35" stop-color="#7dc7fb"/><stop offset="0.56" stop-color="#addbfd"/><stop offset="0.75" stop-color="#cfeafe"/><stop offset="0.9" stop-color="#e4f4ff"/><stop offset="1" stop-color="#ecf7ff"/></linearGradient></defs><ellipse class="cls-2" cx="400" cy="425.93" rx="390.13" ry="19.07"/><path class="cls-3" d="M757.53,97.62H340.38c-10.23,0-15.89,8.73-18.6,18.6L243.67,400.78c-2.71,9.87,8.37,18.6,18.6,18.6H693.56c10.23,0,16.36-8.62,18.6-18.6l64-284.56c2.24-10-8.37-18.6-18.6-18.6"/><path class="cls-4" d="M745.23,97.62H328.08c-10.23,0-15.89,8.73-18.6,18.6L231.37,400.78c-2.71,9.87,8.37,18.6,18.6,18.6H681.26c10.23,0,16.36-8.62,18.6-18.6l64-284.56c2.24-10-8.37-18.6-18.6-18.6"/><g class="cls-5"><rect class="cls-6" x="254.13" y="112.6" width="492.34" height="261.9"/></g><path class="cls-3" d="M700.62,396.91H140.17v14.82A14.85,14.85,0,0,0,155,426.54H685.8a14.86,14.86,0,0,0,14.82-14.81Z"/><path class="cls-7" d="M401.93,396.91H32v14.82c0,8.15,5.7,14.81,12.66,14.81H389.26c7,0,12.67-6.66,12.67-14.81Z"/><path class="cls-8" d="M258.43,408.47H130.94a2.82,2.82,0,0,0,0,5.64H258.43a2.82,2.82,0,0,0,0-5.64"/><path class="cls-4" d="M681.74,404.25c-2.94,0-5.34,3.17-5.34,7.07s2.4,7.08,5.34,7.08,5.34-3.17,5.34-7.08-2.39-7.07-5.34-7.07"/><path class="cls-9" d="M165.82,154.17h-36a28.72,28.72,0,0,0-28.27,23.55h0c-4.4,21.44-2.44,68.62,12.75,85.45L131.5,263l52.75-13.08v-89a28.74,28.74,0,0,0-18.43-6.67"/><path class="cls-10" d="M127,154.31a28.7,28.7,0,0,0-25.44,23.41h0c-1.45,7.06-2.21,16.92-2,27.57H127Z"/><path class="cls-11" d="M126.48,200.21l-27-.21s-1.11,14,7,18.08S124,221.64,124,221.64h59.26s-5-8.29-13.56-9-7.79-.42-7.79-.42-8.42-9-17.67-10.37a171.47,171.47,0,0,0-17.74-1.66"/><rect class="cls-12" x="107.85" y="273.04" width="84.25" height="5.94"/><path class="cls-4" d="M201.06,364.54H103.11a2,2,0,1,0,0,4h98a2,2,0,0,0,0-4"/><path class="cls-4" d="M136.18,278.77H166A32.37,32.37,0,0,1,198.3,311v86.74h-3.4V311A29,29,0,0,0,166,282.16H136.18A29,29,0,0,0,107.27,311v86.74h-3.39V311a32.37,32.37,0,0,1,32.3-32.23"/><path class="cls-4" d="M93.47,371.85l-2.09,15-5.38,5s-4.19-.2-4.68,1.26,0,4.57,0,4.57h27.51c1.31-5.32,2-6.07-.7-10.54l1.82-.66.55-14Z"/><path class="cls-13" d="M218.72,241.91h-91.4a16,16,0,0,0-3,.29h0c-25.51-.13-28.68,16.38-30.47,34.38L83.52,380h34.63l11.43-105.27h89.14a16.42,16.42,0,0,0,0-32.83"/><path class="cls-4" d="M193.76,336.46l-12.55,28.1s.83,5.08,2.93,8,2.3,5,1,6.76-1.67,2.18-1.67,2.18l-21.32-22.25,11.18-26.13Z"/><path class="cls-13" d="M210,246.7a22.51,22.51,0,0,0-9.07,8.11c-7.51,11.41-40.75,86.81-40.75,86.81H199.4l27.68-61.15c1.18-2.61,7.08-13.48,7.63-18.43,1.75-15.93-11.48-21.43-24.74-15.34"/><path class="cls-11" d="M173,133.46c4.44,7.93-3.19,19-12.59,18.19l0,2.52,5.12,7.31L160.5,169l-5.25,1.91-12.69-3.26V145.51a5.78,5.78,0,0,1-1.43-.63c-1.42-.87-2-3-1.6-5.18S143,139,143,139h0c-2.64-6.49-6-12.09.78-15.7S164.26,120,164.26,120l6.22,2.09c.27,6-.57,5.92,2.52,11.42"/><path class="cls-14" d="M161.79,151.69a12.87,12.87,0,0,1-1.38,0A32.17,32.17,0,0,1,149,149.31a12,12,0,0,0,6.22,6.66,20.65,20.65,0,0,0,8,2.18l-2.78-4,0-2.52Z"/><path class="cls-15" d="M179,106.56c1.67,8.48-1.74,16.06-10.09,17.45-5.25.88-9.48.12-12.69.51a9.13,9.13,0,0,0-4.63,2.21c-3.27,2.64-5.21,12.59-5.21,12.59l-.35,2.05s-3.79-2.65-4.94-1.92a2.21,2.21,0,0,0-1.11,2.47,5.51,5.51,0,0,0,1,2.44c.52.45,1.53,1.15,1.53,1.15a7.8,7.8,0,0,1-6.4-1.6c-3.06-2.47-10.78-9.81-10.22-20.66s4.87-13.36,6.54-14.33c1.08-.63,9.73-3.27,16.25-5.49,7.94-2.71,8.6-4.81,13.68-7.14,6.54-3,15.28,3.56,16.6,10.27"/><path class="cls-16" d="M184.25,160.84c11.75,10.47,16.71,18.79,20.89,34L197.91,200l-6.26.38-7.4-.24Z"/><path class="cls-8" d="M155.06,183.68a1.39,1.39,0,1,0,1.39,1.39,1.39,1.39,0,0,0-1.39-1.39m0-8.07a1.4,1.4,0,1,0,1.39,1.39A1.39,1.39,0,0,0,155.06,175.61Zm5.37-21.44c4.82,8.23-.44,14.08-5.18,16.72-6.68-4.34-12.69-8.56-12.69-16.72,0,0-2.31,0-3.8,3.61-2.47,5.93,1.66,19.24,1.66,19.24s4.65-6,8.51-6.33a13.64,13.64,0,0,1,6.36.84c4.94-3.62,8.3,1.07,11.61,4.52,1-8.78.91-15.09-5.66-21.88Z"/><path class="cls-12" d="M334.59,28.79H468.3a13,13,0,0,1,9.31,3.88,15.33,15.33,0,0,1,4.33,9.58L510.24,384h0c0,.35,0,.67,0,1a12.34,12.34,0,0,1-3.82,8.8,14.22,14.22,0,0,1-8.73,4c-.39,0-.77.05-1.13.05H362.89a13,13,0,0,1-9.31-3.88,15.36,15.36,0,0,1-4.33-9.58L321,42.63h0c0-.34,0-.66,0-1a12.34,12.34,0,0,1,3.82-8.8,14.17,14.17,0,0,1,8.73-4c.39,0,.77-.05,1.13-.05M468.3,33.45H334.59q-.39,0-.75,0A9.53,9.53,0,0,0,328,36.16a7.74,7.74,0,0,0-2.41,5.49c0,.21,0,.41,0,.6h0L353.89,384a10.68,10.68,0,0,0,3,6.66,8.4,8.4,0,0,0,6,2.52H496.6q.39,0,.75,0a9.59,9.59,0,0,0,5.86-2.68,7.74,7.74,0,0,0,2.41-5.49c0-.21,0-.41,0-.6h0L477.3,42.63a10.7,10.7,0,0,0-3-6.67A8.43,8.43,0,0,0,468.3,33.45Z"/><path class="cls-12" d="M464.79,33.45H331.09a8.41,8.41,0,0,0-6,2.51h0a10.7,10.7,0,0,0-3,6.67l-28.3,341.79h0c0,.19,0,.39,0,.6a7.74,7.74,0,0,0,2.41,5.49,9.59,9.59,0,0,0,5.86,2.68q.36,0,.75,0h133.7a8.43,8.43,0,0,0,6-2.51h0a10.57,10.57,0,0,0,3-6.66l28.3-341.79h0a5.74,5.74,0,0,0,0-.6,7.71,7.71,0,0,0-2.42-5.49,9.48,9.48,0,0,0-5.86-2.68q-.35,0-.75,0m-133.7-4.66h133.7c.37,0,.75,0,1.14.05a14.17,14.17,0,0,1,8.73,4,12.34,12.34,0,0,1,3.82,8.8c0,.31,0,.63-.05,1h0l-28.3,341.79a15.29,15.29,0,0,1-4.32,9.58h0a13,13,0,0,1-9.31,3.88H302.79c-.37,0-.75,0-1.13-.05a14.2,14.2,0,0,1-8.73-4,12.3,12.3,0,0,1-3.82-8.8c0-.31,0-.63,0-1h0l28.3-341.79a15.33,15.33,0,0,1,4.33-9.58h0A13,13,0,0,1,331.09,28.79Z"/><path class="cls-9" d="M320.68,31.12H477.11a5.35,5.35,0,0,0,0-10.7H320.68a5.35,5.35,0,0,0,0,10.7"/><polygon class="cls-4" points="301.3 265.48 457.39 265.48 476.11 42.44 319.77 42.44 301.3 265.48"/><path class="cls-17" d="M316.34,31.12c-8.95,81.62-26.68,151.24-42,233.62,54.95.74,110.18.74,164.84.74,12-60.64,26.45-170.22,38-234.36Z"/><path class="cls-4" d="M103.63,219.3h97.52c11.94,0,22.79,5.44,30.65,14.2a51.07,51.07,0,0,1,12.75,34.15V397.74H240V267.65a45.74,45.74,0,0,0-11.41-30.56c-7-7.84-16.75-12.71-27.43-12.71H103.63c-10.67,0-20.38,4.87-27.42,12.71A45.74,45.74,0,0,0,64.8,267.65V397.74H60.24V267.65A51.11,51.11,0,0,1,73,233.5c7.87-8.76,18.72-14.2,30.65-14.2"/><path class="cls-4" d="M53.83,219.3H251a4.3,4.3,0,1,1,0,8.6H53.83a4.3,4.3,0,0,1,0-8.6"/><path class="cls-18" d="M246.32,350.4h72.74a23.67,23.67,0,0,1,0,47.34H246.32a23.67,23.67,0,1,1,0-47.34"/><path class="cls-8" d="M310.31,390.48H474.69c-7.36-8.54-10.23-20.66,0-33.14H310.3c-5.94,0-10.81,7.46-10.81,16.57s4.87,16.57,10.82,16.57"/><path class="cls-19" d="M480.24,397.74H309.71c-8.56,0-17.6-10.87-17.6-24s9-23.69,17.6-23.69H480.24l-.08,7.14-169.86.13c-5.94,0-10.81,7.46-10.81,16.57s4.87,16.57,10.81,16.57l169.86-.13Z"/><path class="cls-20" d="M321.67,374.33H342c7.8,2.95,5.55,14.65,10.17,22.31l-12-6.32-8.7,5.92c-6.75-6.95-2.89-18.81-9.78-21.91"/><path class="cls-21" d="M427.88,303.05H355.14a23.68,23.68,0,0,0,0,47.35h72.74a23.68,23.68,0,0,0,0-47.35"/><path class="cls-8" d="M363.89,343.13H199.51c7.36-8.53,10.23-20.65,0-33.14H363.9c5.94,0,10.81,7.47,10.81,16.57s-4.87,16.57-10.82,16.57"/><path class="cls-9" d="M194,350.4H364.49c8.56,0,17.6-10.87,17.6-24s-9-23.69-17.6-23.69H194l.08,7.14L363.9,310c5.94,0,10.81,7.47,10.81,16.57s-4.87,16.57-10.81,16.57L194,343Z"/><path class="cls-22" d="M342.49,54.45H442.68a2.77,2.77,0,0,1,2.76,2.76h0A2.77,2.77,0,0,1,442.68,60H342.49a2.77,2.77,0,0,1-2.77-2.76h0a2.77,2.77,0,0,1,2.77-2.76"/><g class="cls-23"><rect class="cls-24" x="315.68" y="69.85" width="129.55" height="114.53"/></g><path class="cls-25" d="M396.93,172.82H386.42q3.19-18.3,6.38-36.62t6.36-36.63h10.51q-3.19,18.32-6.38,36.63t-6.36,36.62"/><path class="cls-26" d="M378.35,172.82H367.86q2.43-14,4.87-28l4.86-28h10.49l-4.86,28q-2.43,14-4.87,28"/><path class="cls-27" d="M359.78,172.82H349.3c1.27-7.34,2.55-14.71,3.83-22s2.56-14.71,3.84-22.06h10.48c-1.28,7.35-2.55,14.72-3.83,22.06s-2.56,14.71-3.84,22"/><path class="cls-28" d="M341.23,172.82H330.72q1.38-7.81,2.74-15.65t2.71-15.65h10.51c-.92,5.22-1.81,10.44-2.72,15.65l-2.73,15.65"/><path class="cls-29" d="M414.66,172.82H404.17q3.65-21,7.31-42.09t7.32-42.09h10.5q-3.66,21-7.33,42.09t-7.31,42.09"/><path class="cls-22" d="M313.35,206H417.07a2.78,2.78,0,0,1,2.77,2.77h0a2.78,2.78,0,0,1-2.77,2.77H313.35a2.78,2.78,0,0,1-2.77-2.77h0a2.78,2.78,0,0,1,2.77-2.77"/><path class="cls-22" d="M309.58,222.81H413.3a2.77,2.77,0,0,1,2.77,2.76h0a2.77,2.77,0,0,1-2.77,2.76H309.58a2.77,2.77,0,0,1-2.77-2.76h0a2.77,2.77,0,0,1,2.77-2.76"/><path class="cls-30" d="M173.15,173.45h57.23c2.21,0,4.5,1.86,4,4l-8.56,37.83c-.48,2.15-1.8,4-4,4H164.59c-2.2,0-4.5-1.86-4-4l8.55-37.83c.49-2.15,1.81-4,4-4"/><path class="cls-31" d="M175.71,173.45H233c2.21,0,4.5,1.86,4,4l-8.55,37.83c-.49,2.15-1.81,4-4,4H167.16c-2.21,0-4.5-1.86-4-4l8.55-37.83c.49-2.15,1.81-4,4-4"/><path class="cls-30" d="M201.26,192.62c1.73.55,2.59,2.69,1.93,4.76s-2.61,3.31-4.34,2.76-2.59-2.7-1.93-4.77,2.61-3.31,4.34-2.75"/><path class="cls-30" d="M133.42,215.56h29.07v3.74H131.55v-1.87a1.87,1.87,0,0,1,1.87-1.87"/><path class="cls-32" d="M625.53,8H682a24.78,24.78,0,0,1,24.78,24.78v16.5A24.78,24.78,0,0,1,682,74H638.74L625.53,86.15V74a24.77,24.77,0,0,1-24.77-24.77V32.73A24.77,24.77,0,0,1,625.53,8"/><path class="cls-33" d="M647.92,41a6.62,6.62,0,1,0,6.62-6.62A6.61,6.61,0,0,0,647.92,41m29.39-6.62A6.62,6.62,0,1,1,670.69,41,6.61,6.61,0,0,1,677.31,34.36ZM636.84,41a6.62,6.62,0,1,1-6.61-6.62A6.61,6.61,0,0,1,636.84,41Z"/><path class="cls-32" d="M195.22,81.9c6.53,8.63,13.24,20.24,15.56,28.55.43,1.52,2.15,2.17,4.49,2.43a91.05,91.05,0,0,0,16.6-.2c2.28-.34,3.93-1.06,4.36-2.59,2.21-7.92,18.33-32.38,18.13-32.31a35.22,35.22,0,0,0,4.93-18,35.94,35.94,0,0,0-71.87,0,35.12,35.12,0,0,0,4.9,17.93c1,1.42,1.76,2.78,2.9,4.2"/><path class="cls-8" d="M228.71,73.48a4.17,4.17,0,0,1,3-2.3,4.67,4.67,0,0,1,2.73.38,5.75,5.75,0,0,1,2.23,1.86,6.74,6.74,0,0,1,1.19,3.11,9,9,0,0,1-.4,3.81c-.58,1.85-3.26,3.14-6.75,3.87V100h-2.28V84.59a41.2,41.2,0,0,1-10.23,0V100H215.8V84.21c-3.49-.73-6.17-2-6.75-3.87a9,9,0,0,1-.4-3.81,6.74,6.74,0,0,1,1.19-3.11,5.79,5.79,0,0,1,2.22-1.86,4.7,4.7,0,0,1,2.74-.38,4.17,4.17,0,0,1,3,2.3,8.77,8.77,0,0,1,.73,4.5l0,.55-2.37-.21,0-.53a6.22,6.22,0,0,0-.42-3,1.86,1.86,0,0,0-1.38-1A2.4,2.4,0,0,0,213,74a3.26,3.26,0,0,0-1.27,1.06A4,4,0,0,0,211,76.9a6,6,0,0,0,.28,2.56c1.1,3.48,22.88,3.48,24,0a6.17,6.17,0,0,0,.28-2.56,4,4,0,0,0-.69-1.83A3.34,3.34,0,0,0,233.59,74a2.4,2.4,0,0,0-1.44-.21,1.85,1.85,0,0,0-1.38,1,6.1,6.1,0,0,0-.42,3l0,.53-2.37.21,0-.55a8.79,8.79,0,0,1,.73-4.5"/><path class="cls-34" d="M215.32,111.26h16.19a4.15,4.15,0,0,1,4.14,4.14h0a4.15,4.15,0,0,1-4.14,4.14H215.32a4.15,4.15,0,0,1-4.14-4.14h0a4.15,4.15,0,0,1,4.14-4.14"/><path class="cls-34" d="M216.38,120.48h14.07A2.57,2.57,0,0,1,233,123h0a2.56,2.56,0,0,1-2.56,2.56H216.38a2.56,2.56,0,0,1-2.56-2.56h0a2.57,2.57,0,0,1,2.56-2.56"/><path class="cls-34" d="M218.69,126.51h9.45a2.47,2.47,0,0,1,2.45,2.45h0a2.46,2.46,0,0,1-2.45,2.45h-9.45a2.45,2.45,0,0,1-2.45-2.45h0a2.46,2.46,0,0,1,2.45-2.45"/><path class="cls-33" d="M706.52,160H619a7.25,7.25,0,0,0,0,14.5h87.52a7.25,7.25,0,0,0,0-14.5M619,159h87.52a8.24,8.24,0,0,1,5.83,2.42h0a8.2,8.2,0,0,1,0,11.65h0a8.21,8.21,0,0,1-5.83,2.43H619a8.2,8.2,0,0,1-5.82-2.43h0a8.2,8.2,0,0,1,0-11.65h0A8.23,8.23,0,0,1,619,159Z"/><path class="cls-33" d="M700.11,190.25H612.59a7.25,7.25,0,0,0,0,14.5h87.52a7.25,7.25,0,0,0,0-14.5m-87.52-1h87.52a8.26,8.26,0,0,1,5.83,2.42h0a8.22,8.22,0,0,1,0,11.65h0a8.26,8.26,0,0,1-5.83,2.42H612.59a8.26,8.26,0,0,1-5.83-2.42h0a8.22,8.22,0,0,1,0-11.65h0A8.26,8.26,0,0,1,612.59,189.25Z"/><path class="cls-35" d="M689,231.05l2.5-2c1.2-1,2.75-1,3.47,0a2.61,2.61,0,0,1-.86,3.46l-6.44,5.16c-.63,2.57-1.27,5.14-1.9,7.71s-1.27,5.14-1.91,7.71a8.57,8.57,0,0,1-3,4.54,8.25,8.25,0,0,1-5,1.89H655.69a5,5,0,0,1-4.08-1.89,5.32,5.32,0,0,1-.77-4.54q1.24-5,2.48-10T655.8,233a8.61,8.61,0,0,1,3-4.54h0a8.14,8.14,0,0,1,5-1.89h20.11a4.74,4.74,0,0,1,5,4.48M659.54,243.3a2.61,2.61,0,0,1,.86-3.46c1.19-1,2.74-1,3.46,0,1.14,1.51,3.38,5.17,4.79,7.49l9.18-7.36,9.2-7.37a3.74,3.74,0,0,0-.63-2.85,3.57,3.57,0,0,0-2.92-1.35H663.37a5.9,5.9,0,0,0-3.59,1.35,6.24,6.24,0,0,0-2.15,3.25q-1.23,5-2.48,10.05t-2.47,10a3.75,3.75,0,0,0,.55,3.24,3.51,3.51,0,0,0,2.91,1.35h20.12a5.81,5.81,0,0,0,3.58-1.35,6.17,6.17,0,0,0,2.15-3.24c.55-2.26,1.12-4.53,1.67-6.79l1.68-6.8-8.21,6.59-8.22,6.58h0l-.2.15c-1.25.86-2.76.72-3.36-.32,0,0-1-1.73-2.27-3.74S660.4,244.44,659.54,243.3Z"/><path class="cls-35" d="M676.12,279l2.5-2c1.2-.95,2.75-.95,3.47,0a2.6,2.6,0,0,1-.85,3.46l-6.44,5.16c-.64,2.57-1.27,5.14-1.91,7.71s-1.26,5.14-1.9,7.71a8.55,8.55,0,0,1-3,4.54,8.18,8.18,0,0,1-5,1.89H642.85a5,5,0,0,1-4.07-1.89A5.28,5.28,0,0,1,638,301q1.23-5,2.47-10t2.48-10a8.61,8.61,0,0,1,3-4.54h0a8.22,8.22,0,0,1,5-1.89H671.1a5,5,0,0,1,4.08,1.89,4.87,4.87,0,0,1,.94,2.6M646.7,291.21a2.63,2.63,0,0,1,.86-3.46c1.19-1,2.74-1,3.46,0,1.14,1.5,3.39,5.16,4.79,7.49l9.19-7.37,9.19-7.36a3.68,3.68,0,0,0-.63-2.85,3.56,3.56,0,0,0-2.92-1.35H650.53a5.79,5.79,0,0,0-3.58,1.35,6.1,6.1,0,0,0-2.15,3.25q-1.24,5-2.48,10t-2.48,10a3.81,3.81,0,0,0,.55,3.25,3.56,3.56,0,0,0,2.92,1.35h20.11a5.92,5.92,0,0,0,3.59-1.35,6.22,6.22,0,0,0,2.14-3.25l1.68-6.79c.56-2.26,1.11-4.53,1.68-6.79L664.29,294l-8.21,6.58h0c-.06.06-.13.1-.19.15-1.26.86-2.76.72-3.37-.31,0,0-1-1.74-2.26-3.75S647.56,292.34,646.7,291.21Z"/><path class="cls-35" d="M664.86,328.34l2.49-2c1.2-.95,2.76-.95,3.47,0a2.6,2.6,0,0,1-.85,3.46L663.53,335c-.64,2.57-1.27,5.14-1.91,7.71s-1.26,5.14-1.9,7.71a8.5,8.5,0,0,1-3,4.54,8.18,8.18,0,0,1-5,1.89H631.59a5,5,0,0,1-4.08-1.89,5.28,5.28,0,0,1-.77-4.54q1.23-5,2.47-10t2.48-10.05a8.62,8.62,0,0,1,3-4.53h0a8.16,8.16,0,0,1,5-1.89h20.12a4.76,4.76,0,0,1,5,4.49m-29.42,12.24a2.62,2.62,0,0,1,.85-3.46c1.19-.95,2.74-.95,3.46,0,1.14,1.51,3.39,5.17,4.79,7.49l9.19-7.36,9.19-7.36a3.68,3.68,0,0,0-.63-2.85,3.57,3.57,0,0,0-2.92-1.36H639.26a5.82,5.82,0,0,0-3.58,1.36,6.12,6.12,0,0,0-2.15,3.24q-1.24,5-2.48,10.05t-2.48,10a3.84,3.84,0,0,0,.55,3.25A3.56,3.56,0,0,0,632,355h20.11a5.92,5.92,0,0,0,3.59-1.35,6.22,6.22,0,0,0,2.14-3.25l1.68-6.79c.56-2.26,1.11-4.53,1.68-6.79L653,343.37,644.81,350h0l-.2.15c-1.26.86-2.76.72-3.37-.31,0,0-1-1.74-2.26-3.75S636.29,341.72,635.44,340.58Z"/><path class="cls-9" d="M370.85,15.43h52.49a7.87,7.87,0,0,1,7.85,7.84v7.85H363V23.27a7.87,7.87,0,0,1,7.85-7.84"/></svg>