<svg xmlns="http://www.w3.org/2000/svg" xmlns:xlink="http://www.w3.org/1999/xlink" viewBox="0 0 150.64 161.79"><defs><style>.cls-1{isolation:isolate;}.cls-2{opacity:0.19;}.cls-2,.cls-32,.cls-33,.cls-4,.cls-5,.cls-78,.cls-85{mix-blend-mode:multiply;}.cls-3,.cls-78{fill:#4588ff;}.cls-33,.cls-4,.cls-78,.cls-94{opacity:0.35;}.cls-25,.cls-5,.cls-84{opacity:0.25;}.cls-114,.cls-6,.cls-87,.cls-88{fill:#fff;}.cls-7{fill:url(#linear-gradient);}.cls-8{fill:#2875df;}.cls-24,.cls-9{fill:#75bcfc;}.cls-10{fill:#4594f4;}.cls-11{fill:#347ee8;}.cls-12{fill:#fcc106;}.cls-115,.cls-13{fill:#205ce2;}.cls-14{fill:url(#linear-gradient-2);}.cls-15,.cls-28,.cls-82,.cls-83,.cls-84,.cls-85{fill:#b4bbe1;}.cls-16{fill:#dae3f2;}.cls-17{fill:#ced2ef;}.cls-18{fill:#c5c8e8;}.cls-19{fill:url(#linear-gradient-3);}.cls-20{fill:#ef770a;}.cls-21{fill:#ff9906;}.cls-22{fill:#328eea;}.cls-23{fill:url(#linear-gradient-4);}.cls-24,.cls-28{opacity:0.45;}.cls-26,.cls-31,.cls-79,.cls-80,.cls-95{fill:none;}.cls-26,.cls-95{stroke:#fff;}.cls-26,.cls-31,.cls-80,.cls-95{stroke-linecap:round;}.cls-26,.cls-31,.cls-79{stroke-miterlimit:10;}.cls-26{stroke-width:0.85px;}.cls-27{fill:url(#linear-gradient-5);}.cls-29{fill:url(#linear-gradient-6);}.cls-30{fill:#f7f5fa;}.cls-31{stroke:#b4bbe1;}.cls-32{fill:url(#linear-gradient-7);}.cls-33{fill:url(#linear-gradient-8);}.cls-34{fill:#ebf6f7;}.cls-35{fill:url(#linear-gradient-9);}.cls-36{fill:url(#linear-gradient-10);}.cls-37{fill:url(#linear-gradient-11);}.cls-38{fill:url(#linear-gradient-12);}.cls-39{fill:url(#linear-gradient-13);}.cls-40{fill:url(#linear-gradient-14);}.cls-41{fill:url(#linear-gradient-15);}.cls-42{fill:url(#linear-gradient-16);}.cls-43{fill:url(#linear-gradient-17);}.cls-44{fill:url(#linear-gradient-18);}.cls-45{fill:url(#linear-gradient-19);}.cls-46{fill:url(#linear-gradient-20);}.cls-47{fill:url(#linear-gradient-21);}.cls-48{fill:url(#linear-gradient-22);}.cls-49{fill:url(#linear-gradient-23);}.cls-50{fill:url(#linear-gradient-24);}.cls-51{fill:url(#linear-gradient-25);}.cls-52{fill:url(#linear-gradient-26);}.cls-53{fill:url(#linear-gradient-27);}.cls-54{fill:url(#linear-gradient-28);}.cls-55{fill:url(#linear-gradient-29);}.cls-56{fill:url(#linear-gradient-30);}.cls-57{fill:url(#linear-gradient-31);}.cls-58{fill:url(#linear-gradient-32);}.cls-59{fill:url(#linear-gradient-33);}.cls-60{fill:url(#linear-gradient-34);}.cls-61{fill:url(#linear-gradient-35);}.cls-62{fill:url(#linear-gradient-36);}.cls-63{fill:url(#linear-gradient-37);}.cls-64{fill:url(#linear-gradient-38);}.cls-65{fill:url(#linear-gradient-39);}.cls-66{fill:url(#linear-gradient-40);}.cls-67{fill:url(#linear-gradient-41);}.cls-68{fill:url(#linear-gradient-42);}.cls-69{fill:url(#linear-gradient-43);}.cls-70{fill:url(#linear-gradient-44);}.cls-71{fill:url(#linear-gradient-45);}.cls-72{fill:url(#linear-gradient-46);}.cls-73{fill:url(#linear-gradient-47);}.cls-74{fill:url(#linear-gradient-48);}.cls-75{fill:url(#linear-gradient-49);}.cls-76{fill:url(#linear-gradient-50);}.cls-115,.cls-77{opacity:0.75;}.cls-79,.cls-80{stroke:#dae3f2;}.cls-80,.cls-95{stroke-linejoin:round;}.cls-81{fill:url(#linear-gradient-51);}.cls-82{opacity:0.11;}.cls-83{opacity:0.15;}.cls-114,.cls-85{opacity:0.55;}.cls-86,.cls-87{opacity:0.2;}.cls-86{mix-blend-mode:screen;fill:url(#linear-gradient-52);}.cls-88{opacity:0.4;}.cls-89{fill:#81c5e8;}.cls-90{fill:#cdd5f7;}.cls-91{fill:#2d2d2d;}.cls-92{fill:#3a3a3a;}.cls-93{fill:#4b4c4c;}.cls-95{stroke-width:2.76px;}.cls-96{fill:#f2ba88;}.cls-97{fill:#ffd1a4;}.cls-98{fill:#e8ecf7;}.cls-99{fill:url(#linear-gradient-53);}.cls-100{fill:#190b05;}.cls-101{fill:#7f391b;}.cls-102{fill:#934b32;}.cls-103{fill:#682c17;}.cls-104{fill:#595959;opacity:0.5;}.cls-105{fill:#845424;}.cls-106{fill:#713e23;}.cls-107,.cls-110{fill:#efefef;}.cls-107{opacity:0.39;}.cls-108{fill:#442312;}.cls-109{fill:#d39867;}.cls-111{fill:#1d68d6;}.cls-112{fill:url(#linear-gradient-54);}.cls-113{fill:#063444;}.cls-116{fill:#165bd6;}.cls-117{fill:#474747;}.cls-118{fill:#134dce;}</style><linearGradient id="linear-gradient" x1="36.38" y1="58.98" x2="15.69" y2="70.92" gradientUnits="userSpaceOnUse"><stop offset="0" stop-color="#b4bbe1" stop-opacity="0.1"/><stop offset="0.63" stop-color="#b4bbe1" stop-opacity="0.24"/><stop offset="1" stop-color="#b4bbe1" stop-opacity="0.3"/></linearGradient><linearGradient id="linear-gradient-2" x1="49.24" y1="62.2" x2="28.55" y2="74.15" xlink:href="#linear-gradient"/><linearGradient id="linear-gradient-3" x1="14.92" y1="82.26" x2="3.87" y2="88.63" xlink:href="#linear-gradient"/><linearGradient id="linear-gradient-4" x1="1503.91" y1="87.32" x2="1576.67" y2="129.33" gradientTransform="matrix(-1, 0, 0, 1, 1605.97, 0)" xlink:href="#linear-gradient"/><linearGradient id="linear-gradient-5" x1="82.32" y1="89.85" x2="38.94" y2="114.89" gradientUnits="userSpaceOnUse"><stop offset="0" stop-color="#ced5ef"/><stop offset="0.37" stop-color="#d5ddf1"/><stop offset="0.87" stop-color="#dae3f2"/></linearGradient><linearGradient id="linear-gradient-6" x1="93.47" y1="83.03" x2="49.78" y2="108.26" xlink:href="#linear-gradient-5"/><linearGradient id="linear-gradient-7" x1="83.52" y1="116.34" x2="83.52" y2="53.37" xlink:href="#linear-gradient"/><linearGradient id="linear-gradient-8" x1="59.12" y1="113.79" x2="94.71" y2="52.14" gradientUnits="userSpaceOnUse"><stop offset="0" stop-color="#b4bbe1" stop-opacity="0.1"/><stop offset="0.41" stop-color="#b4bbe1" stop-opacity="0.4"/><stop offset="0.83" stop-color="#b4bbe1" stop-opacity="0.8"/><stop offset="0.84" stop-color="#c5cbe8" stop-opacity="0.68"/><stop offset="0.87" stop-color="#dadef0" stop-opacity="0.55"/><stop offset="0.89" stop-color="#eaecf7" stop-opacity="0.44"/><stop offset="0.92" stop-color="#f6f7fb" stop-opacity="0.36"/><stop offset="0.96" stop-color="#fdfdfe" stop-opacity="0.31"/><stop offset="1" stop-color="#fff" stop-opacity="0.3"/></linearGradient><linearGradient id="linear-gradient-9" x1="69.28" y1="61.26" x2="86" y2="61.26" xlink:href="#linear-gradient-5"/><linearGradient id="linear-gradient-10" x1="69.28" y1="59.53" x2="86" y2="59.53" xlink:href="#linear-gradient-5"/><linearGradient id="linear-gradient-11" x1="69.28" y1="62.99" x2="86" y2="62.99" xlink:href="#linear-gradient-5"/><linearGradient id="linear-gradient-12" x1="69.28" y1="64.72" x2="86" y2="64.72" xlink:href="#linear-gradient-5"/><linearGradient id="linear-gradient-13" x1="69.28" y1="66.45" x2="86" y2="66.45" xlink:href="#linear-gradient-5"/><linearGradient id="linear-gradient-14" x1="80.82" y1="81.44" x2="86" y2="81.44" xlink:href="#linear-gradient-5"/><linearGradient id="linear-gradient-15" x1="69.28" y1="76.39" x2="80.13" y2="76.39" xlink:href="#linear-gradient-5"/><linearGradient id="linear-gradient-16" x1="69.28" y1="76.69" x2="87.11" y2="76.69" xlink:href="#linear-gradient-5"/><linearGradient id="linear-gradient-17" x1="69.28" y1="74.63" x2="86" y2="74.63" xlink:href="#linear-gradient-5"/><linearGradient id="linear-gradient-18" x1="69.28" y1="72.9" x2="86" y2="72.9" xlink:href="#linear-gradient-5"/><linearGradient id="linear-gradient-19" x1="69.28" y1="84.76" x2="86" y2="84.76" xlink:href="#linear-gradient-5"/><linearGradient id="linear-gradient-20" x1="69.14" y1="87.11" x2="88.62" y2="87.11" xlink:href="#linear-gradient-5"/><linearGradient id="linear-gradient-21" x1="68.75" y1="88.48" x2="88.48" y2="88.48" xlink:href="#linear-gradient-5"/><linearGradient id="linear-gradient-22" x1="69.28" y1="83.03" x2="86" y2="83.03" xlink:href="#linear-gradient-5"/><linearGradient id="linear-gradient-23" x1="69.28" y1="81.3" x2="86" y2="81.3" xlink:href="#linear-gradient-5"/><linearGradient id="linear-gradient-24" x1="79.03" y1="82.39" x2="86" y2="82.39" xlink:href="#linear-gradient-5"/><linearGradient id="linear-gradient-25" x1="69.28" y1="77.35" x2="78.34" y2="77.35" xlink:href="#linear-gradient-5"/><linearGradient id="linear-gradient-26" x1="87.64" y1="86.26" x2="95.83" y2="86.26" xlink:href="#linear-gradient-5"/><linearGradient id="linear-gradient-27" x1="87.64" y1="84.53" x2="95.83" y2="84.53" xlink:href="#linear-gradient-5"/><linearGradient id="linear-gradient-28" x1="87.64" y1="81.9" x2="95.83" y2="81.9" xlink:href="#linear-gradient-5"/><linearGradient id="linear-gradient-29" x1="87.64" y1="92.61" x2="94.74" y2="92.61" xlink:href="#linear-gradient-5"/><linearGradient id="linear-gradient-30" x1="87.64" y1="91.19" x2="95.83" y2="91.19" xlink:href="#linear-gradient-5"/><linearGradient id="linear-gradient-31" x1="87.64" y1="89.46" x2="95.83" y2="89.46" xlink:href="#linear-gradient-5"/><linearGradient id="linear-gradient-32" x1="87.64" y1="87.73" x2="95.83" y2="87.73" xlink:href="#linear-gradient-5"/><linearGradient id="linear-gradient-33" x1="69.28" y1="68.74" x2="84.25" y2="68.74" xlink:href="#linear-gradient-5"/><linearGradient id="linear-gradient-34" x1="69.28" y1="74.06" x2="96.01" y2="74.06" xlink:href="#linear-gradient-5"/><linearGradient id="linear-gradient-35" x1="88.83" y1="97.45" x2="95.83" y2="97.45" xlink:href="#linear-gradient-5"/><linearGradient id="linear-gradient-36" x1="90.16" y1="101.52" x2="93.1" y2="101.52" xlink:href="#linear-gradient-5"/><linearGradient id="linear-gradient-37" x1="67.6" y1="94.3" x2="85.19" y2="94.3" xlink:href="#linear-gradient-5"/><linearGradient id="linear-gradient-38" x1="57.75" y1="83.35" x2="72.07" y2="83.35" xlink:href="#linear-gradient-5"/><linearGradient id="linear-gradient-39" x1="56.52" y1="84.31" x2="70.57" y2="84.31" xlink:href="#linear-gradient-5"/><linearGradient id="linear-gradient-40" x1="55.46" y1="85.39" x2="69.47" y2="85.39" xlink:href="#linear-gradient-5"/><linearGradient id="linear-gradient-41" x1="54.48" y1="86.58" x2="68.5" y2="86.58" xlink:href="#linear-gradient-5"/><linearGradient id="linear-gradient-42" x1="53.69" y1="87.84" x2="67.73" y2="87.84" xlink:href="#linear-gradient-5"/><linearGradient id="linear-gradient-43" x1="53.07" y1="89.25" x2="67.11" y2="89.25" xlink:href="#linear-gradient-5"/><linearGradient id="linear-gradient-44" x1="52.49" y1="95.47" x2="78.79" y2="95.47" xlink:href="#linear-gradient-5"/><linearGradient id="linear-gradient-45" x1="52.39" y1="97.53" x2="78.79" y2="97.53" xlink:href="#linear-gradient-5"/><linearGradient id="linear-gradient-46" x1="52.09" y1="99.43" x2="78.49" y2="99.43" xlink:href="#linear-gradient-5"/><linearGradient id="linear-gradient-47" x1="51.51" y1="101.19" x2="77.9" y2="101.19" xlink:href="#linear-gradient-5"/><linearGradient id="linear-gradient-48" x1="50.63" y1="102.8" x2="77.06" y2="102.8" xlink:href="#linear-gradient-5"/><linearGradient id="linear-gradient-49" x1="49.52" y1="104.26" x2="75.96" y2="104.26" xlink:href="#linear-gradient-5"/><linearGradient id="linear-gradient-50" x1="61.87" y1="109.54" x2="74.6" y2="109.54" xlink:href="#linear-gradient-5"/><linearGradient id="linear-gradient-51" x1="140.93" y1="125.67" x2="104.61" y2="146.64" xlink:href="#linear-gradient"/><linearGradient id="linear-gradient-52" x1="107.39" y1="128.04" x2="118.04" y2="128.04" xlink:href="#linear-gradient"/><linearGradient id="linear-gradient-53" x1="52.45" y1="131.4" x2="39.2" y2="139.05" xlink:href="#linear-gradient"/><linearGradient id="linear-gradient-54" x1="41.69" y1="122.45" x2="22.9" y2="133.3" gradientTransform="translate(-23.55 28.45) rotate(-5.77)" xlink:href="#linear-gradient"/></defs><title>Varlık 3</title><g class="cls-1"><g id="katman_2" data-name="katman 2"><g id="OBJECTS"><g class="cls-2"><path class="cls-3" d="M100.86,26.32a.79.79,0,0,1-.28-.1L83.94,16.64a1.3,1.3,0,0,1-.66-1.09V.65a.61.61,0,0,1,.34-.58.73.73,0,0,1,.71,0L101,9.68a1.3,1.3,0,0,1,.66,1.09V25.7a.62.62,0,0,1-.33.57A.66.66,0,0,1,100.86,26.32Z"/></g><g class="cls-4"><path class="cls-3" d="M107.42,38a.58.58,0,0,1-.21-.07l-12-6.9a.94.94,0,0,1-.47-.79V19.48a.44.44,0,0,1,.24-.41.54.54,0,0,1,.52,0l12,6.89a1,1,0,0,1,.48.79V37.54a.43.43,0,0,1-.24.4A.45.45,0,0,1,107.42,38Z"/></g><g class="cls-2"><path class="cls-3" d="M51.23,29.25l-.14-.05-8.22-4.73a.65.65,0,0,1-.33-.54V16.56a.29.29,0,0,1,.17-.28.34.34,0,0,1,.35,0L51.27,21a.65.65,0,0,1,.33.54v7.38a.3.3,0,0,1-.16.28A.39.39,0,0,1,51.23,29.25Z"/></g><g class="cls-5"><path class="cls-3" d="M134.56,71.89a1.21,1.21,0,0,1-.3-.11L116.42,61.51a1.4,1.4,0,0,1-.71-1.17v-16a.67.67,0,0,1,.36-.62.85.85,0,0,1,.77,0L134.66,54a1.4,1.4,0,0,1,.71,1.18v16a.67.67,0,0,1-.36.61A.69.69,0,0,1,134.56,71.89Z"/></g><path class="cls-6" d="M125.61,64.27c-1.47,0-3.44-2.09-4.42-4.53-1.12-2.81-1.09-5.84.08-7.64s3.18-2,5-.47c0,.16-.08.31-.13.47-.42,1.56-.86,3.11-1.26,4.7a3.77,3.77,0,0,0-.06,1.27c.22,1.88.47,3.75.71,5.63Z"/><path class="cls-6" d="M126.21,64.42c-.26-2.06-.52-4-.78-6.07l3.9,3.47C128.71,63.55,127.68,64.38,126.21,64.42Z"/><path class="cls-6" d="M126.86,52.15A10.47,10.47,0,0,1,129.53,61l-4.09-3.65C125.91,55.64,126.39,53.9,126.86,52.15Z"/><polygon class="cls-7" points="13.89 67.8 21.08 71.94 38.18 62.09 31.05 57.93 13.89 67.8"/><path class="cls-8" d="M31.63,28.58l-16,9.21,5.42,3.12,11.45-9.34V29.1A.6.6,0,0,0,31.63,28.58Z"/><polygon class="cls-9" points="15.65 38.64 31.54 29.49 37.26 32.79 21.38 41.94 15.65 38.64"/><path class="cls-10" d="M37.7,31.8a.68.68,0,0,0-.7-.07L21.08,40.91l-5.42-3.12,16-9.21a.63.63,0,0,1,.52,0h0s-.55-.28-.77-.41a.65.65,0,0,0-.67,0L13.9,37.78V66l6.29-3.62v7.26l17.19-9.9a1,1,0,0,0,.52-.9l.54-26.64S37.94,32,37.7,31.8Z"/><polygon class="cls-11" points="21.08 41.92 13.89 37.79 13.89 66.03 21.08 70.17 21.08 41.92"/><polygon class="cls-12" points="20.1 43.45 14.56 40.26 14.56 42.42 20.1 45.61 20.1 43.45"/><polygon class="cls-12" points="20.1 46.3 14.56 43.11 14.56 43.86 20.1 47.05 20.1 46.3"/><polygon class="cls-12" points="20.1 47.69 14.56 44.5 14.56 45.25 20.1 48.44 20.1 47.69"/><polygon class="cls-12" points="20.1 66.49 14.56 63.3 14.56 64.05 20.1 67.24 20.1 66.49"/><path class="cls-13" d="M37.89,32.24,21.08,41.92V70.17l17.19-9.9a1,1,0,0,0,.52-.9V32.76A.6.6,0,0,0,37.89,32.24Z"/><polygon class="cls-14" points="26.75 71.03 33.93 75.17 51.04 65.32 43.91 61.16 26.75 71.03"/><path class="cls-15" d="M44.49,30.66l-16,9.2L33.93,43l11.46-9.33V31.18A.6.6,0,0,0,44.49,30.66Z"/><polygon class="cls-16" points="28.51 40.72 44.4 31.57 50.12 34.87 34.23 44.02 28.51 40.72"/><path class="cls-17" d="M50.55,33.88a.64.64,0,0,0-.69-.07L33.93,43l-5.42-3.12,16-9.2a.57.57,0,0,1,.52,0h0s-.56-.27-.78-.4a.64.64,0,0,0-.67,0L26.75,39.85V68.1l6.3-3.63v7.27l17.19-9.9a1,1,0,0,0,.52-.9l.54-26.65S50.8,34,50.55,33.88Z"/><polygon class="cls-18" points="33.93 44 26.75 39.86 26.75 68.11 33.93 72.24 33.93 44"/><polygon class="cls-6" points="32.96 45.52 27.42 42.33 27.42 44.49 32.96 47.68 32.96 45.52"/><polygon class="cls-6" points="32.96 48.38 27.42 45.19 27.42 45.93 32.96 49.12 32.96 48.38"/><polygon class="cls-6" points="32.96 49.77 27.42 46.58 27.42 47.33 32.96 50.51 32.96 49.77"/><polygon class="cls-6" points="32.96 68.57 27.42 65.38 27.42 66.13 32.96 69.32 32.96 68.57"/><path class="cls-15" d="M50.75,34.31,33.93,44V72.24l17.19-9.9a1,1,0,0,0,.52-.9V34.83A.6.6,0,0,0,50.75,34.31Z"/><polygon class="cls-19" points="0 81.94 15.52 91.01 18.78 88.95 3.27 79.88 0 81.94"/><polygon class="cls-18" points="18.78 74.23 18.78 87.16 15.52 89.21 15.52 76.29 18.78 74.23"/><polygon class="cls-17" points="0 67.21 15.52 76.29 18.78 74.23 3.27 65.15 0 67.21"/><polygon class="cls-15" points="15.52 89.21 0 80.13 0 67.21 15.52 76.29 15.52 89.21"/><polygon class="cls-18" points="0 67.21 7.76 78.21 15.52 76.29 0 67.21"/><path class="cls-8" d="M12.56,69.72v2.55a.44.44,0,0,1-.27.4.42.42,0,0,1-.58-.38V69.74a.68.68,0,0,0-.33-.58L7.5,66.89a.28.28,0,0,0-.29,0,.1.1,0,0,0,0,0h0a.32.32,0,0,0-.07.2v1.92a.43.43,0,0,1-.26.39.29.29,0,0,1-.16,0,.41.41,0,0,1-.43-.41V67.16a1.15,1.15,0,0,1,.58-1A1,1,0,0,1,7.08,66a1.09,1.09,0,0,1,.86.11l3.88,2.27A1.51,1.51,0,0,1,12.56,69.72Z"/><polygon class="cls-20" points="8.64 77.73 8.64 79.05 8.34 79.23 8.34 77.92 8.64 77.73"/><polygon class="cls-21" points="6.76 76.99 8.34 77.92 8.64 77.73 7.05 76.81 6.76 76.99"/><polygon class="cls-12" points="8.34 79.23 6.76 78.31 6.76 76.99 8.34 77.92 8.34 79.23"/><path class="cls-22" d="M12.56,69.72v2.55a.44.44,0,0,1-.27.4V70.12a1.68,1.68,0,0,0-.38-1.26L7.08,66a1.09,1.09,0,0,1,.86.11l3.88,2.27A1.51,1.51,0,0,1,12.56,69.72Z"/><path class="cls-22" d="M7.14,66.94a.32.32,0,0,0-.07.2v1.92a.43.43,0,0,1-.26.39v-2A.68.68,0,0,1,7.14,66.94Z"/><path class="cls-23" d="M56.86,78.75l60.38,34.86-42.19,24a3.15,3.15,0,0,1-3.13,0L15.49,105a1.58,1.58,0,0,1,0-2.74Z"/><path class="cls-15" d="M118.65,58.83V104l-1.41.78-59-35.64L57.5,23.93l1.32-.74a1.15,1.15,0,0,1,1.2,0l57.06,32.94A3.15,3.15,0,0,1,118.65,58.83Z"/><path class="cls-16" d="M117.24,59.62v45.12L56.86,69.88V25a1.17,1.17,0,0,1,1.75-1l57.05,32.94A3.14,3.14,0,0,1,117.24,59.62Z"/><polygon class="cls-13" points="114.3 58.88 114.3 100.11 58.61 68.03 58.61 26.8 114.3 58.88"/><polygon class="cls-9" points="105.92 56.65 105.92 60.98 74.38 42.81 74.38 38.48 105.92 56.65"/><polygon class="cls-8" points="75.25 42.08 75.25 40.16 105.05 57.32 105.05 59.25 75.25 42.08"/><path class="cls-24" d="M96.09,77.66,106.94,84a.64.64,0,0,0,1-.52V70.77a.93.93,0,0,0-.46-.78L96.65,63.7a.64.64,0,0,0-1,.51V76.89A.91.91,0,0,0,96.09,77.66Z"/><g class="cls-25"><line class="cls-26" x1="107.14" y1="72.26" x2="96.44" y2="66.07"/><line class="cls-26" x1="107.14" y1="73.59" x2="96.44" y2="67.41"/><line class="cls-26" x1="107.14" y1="74.93" x2="96.44" y2="68.74"/><line class="cls-26" x1="107.14" y1="76.27" x2="96.44" y2="70.08"/><line class="cls-26" x1="107.14" y1="77.6" x2="96.44" y2="71.42"/><line class="cls-26" x1="107.14" y1="78.94" x2="96.44" y2="72.75"/><line class="cls-26" x1="107.14" y1="80.28" x2="96.44" y2="74.09"/><line class="cls-26" x1="107.14" y1="81.61" x2="99.18" y2="77.01"/></g><path class="cls-15" d="M56.86,71.61l60.38,33.13v1.73l-42.19,24a3.15,3.15,0,0,1-3.13,0L15.49,97.84a1.54,1.54,0,0,1-.79-1.36V94.74Z"/><path class="cls-27" d="M56.86,69.88l60.38,34.86-42.19,24a3.15,3.15,0,0,1-3.13,0L15.49,96.11a1.58,1.58,0,0,1,0-2.74Z"/><polygon class="cls-28" points="35.28 88.15 58.08 75.2 107.97 104 85.16 116.95 35.28 88.15"/><path class="cls-29" d="M87.81,96.38l-2.07-1.19,2.49-1.42L90.31,95Zm10,7L54.35,78.22l-2.5,1.42,43.5,25.11ZM87.63,93.42l-2.08-1.2-2.49,1.42,2.07,1.2ZM85,91.88l-2.07-1.2-2.5,1.41,2.08,1.2ZM60.85,78l-3-1.73-2.49,1.41,3,1.74Zm34.81,20.1-2.07-1.2-2.5,1.42,2.08,1.19Zm2.68,1.54-2.08-1.19-2.49,1.41,2.07,1.2ZM93,96.51l-2.07-1.19-2.5,1.41,2.08,1.2ZM66.21,81.05l-2.08-1.19-2.49,1.41,2.07,1.2Zm2.68,1.55-2.08-1.2-2.49,1.42L66.39,84Zm13.38,7.73-2.07-1.2-2.5,1.42,2.08,1.2Zm-20.81-12L59,79.73,61,80.92l2.49-1.41Zm10.1,5.84L69.49,83,67,84.37l2.07,1.19Zm2.68,1.54-2.07-1.2-2.5,1.42,2.08,1.2Zm5.36,3.09-2.08-1.19L75,89l2.07,1.2Zm-2.68-1.54L74.84,86l-2.49,1.42,2.07,1.19Zm24.43,14.1L98.94,100l-2.49,1.42,2.41,1.39Zm-17.56,10-2.44,1.38,4.05,2.34,2.5-1.42-4.16-2.4Zm-.57-1.55,5.68,3.28,2.5-1.42-5.69-3.28ZM42.29,87.31l-1.94-1.12-2.5,1.42,1.95,1.12Zm42.8,19.55,7.31,4.21,2.5-1.41-7.31-4.22ZM83.24,111l-2.35-1.36L78.4,111l2.35,1.35ZM102,101.69l-2.5,1.42,3.44,2,2.49-1.41Zm-6,3.41,3.44,2,2.49-1.42-3.44-2Zm-5.47.86,5.41,3.12,2.49-1.42L93,104.54ZM48,93.48l2.5-1.42-7.62-4.4L40.4,89.08Zm5.42.26-2.32-1.33-2.49,1.41,2.31,1.34Zm38.95,10.45-41.53-24-2.5,1.42,41.53,24ZM85.11,108,43.85,84.2l-2.5,1.42,41.27,23.82ZM87,105.09,47.35,82.21l-2.5,1.41,39.64,22.89Zm-9.69,2.44L59.87,97.47l-2.49,1.41,17.43,10.06ZM56.35,95.43,54,94.09l-2.49,1.42,2.32,1.34Zm23.94,13.82-2.39-1.37-2.49,1.41,2.38,1.38Zm-21-12.13L57,95.78,54.46,97.2l2.32,1.33Z"/><path class="cls-30" d="M46.76,96.51,59.66,104a.35.35,0,0,1,0,.61l-7.16,4.06a1,1,0,0,1-1,0l-12.91-7.45a.36.36,0,0,1,0-.61l7.16-4.06A1,1,0,0,1,46.76,96.51Z"/><path class="cls-15" d="M59.66,104.21l-12.9-7.45a1.06,1.06,0,0,0-1,0l-7.16,4.07a.38.38,0,0,0-.15.18.35.35,0,0,1,.15-.43l7.16-4.06a1,1,0,0,1,1,0L59.66,104a.35.35,0,0,1,.15.43A.33.33,0,0,0,59.66,104.21Z"/><line class="cls-31" x1="86.45" y1="41.23" x2="90.15" y2="43.37"/><path class="cls-15" d="M91.91,44.17c.08.2,0,.36-.2.36a.63.63,0,0,1-.51-.36c-.08-.19,0-.35.2-.35A.64.64,0,0,1,91.91,44.17Z"/><polygon class="cls-32" points="94 53.37 104.2 57.78 104.2 60.53 104.2 97.3 71.89 116.34 62.84 105.36 94 53.37"/><path class="cls-15" d="M79.88,96.37,91.17,103l0-.15a2.48,2.48,0,0,1-1-2V99.14c0-1.18-.56-3.18-1.39-3.76a3.47,3.47,0,0,0-.45-.26h0a3.4,3.4,0,0,0-3.36.25C84.2,95.83,80.48,95.76,79.88,96.37Z"/><path class="cls-6" d="M104.2,57.62,75.78,41.23l-5.45,3.12h0a3.33,3.33,0,0,0-1.75,2.93v33.1a5.86,5.86,0,0,1-.73,2.82l-7.37-4.28a2.39,2.39,0,0,0-.49-.28h0a3.3,3.3,0,0,0-1.55-.32,3.46,3.46,0,0,0-1.78.57,11.73,11.73,0,0,0-5.37,9.78v.09a11.21,11.21,0,0,1-4.73,9.08l-6.65,4.74L68.19,119l6.65-4.75a11,11,0,0,0,4.73-9.08v-.08a11.59,11.59,0,0,1,1.32-5.34,11.94,11.94,0,0,1,4-4.44,3.42,3.42,0,0,1,3.36-.24h0a2,2,0,0,1,.47.31,4.66,4.66,0,0,1,1.37,3.7v1.65a2.55,2.55,0,0,0,4,2.08h0c2.31-1.44,2.69-4,2.69-6V63.73a3.32,3.32,0,0,1,1.88-3h0Z"/><path class="cls-33" d="M104.2,57.62,75.78,41.23l-5.45,3.12h0a3.33,3.33,0,0,0-1.75,2.93v33.1a5.86,5.86,0,0,1-.73,2.82l-7.37-4.28a2.39,2.39,0,0,0-.49-.28h0a3.3,3.3,0,0,0-1.55-.32,3.46,3.46,0,0,0-1.78.57,11.73,11.73,0,0,0-5.37,9.78v.09a11.21,11.21,0,0,1-4.73,9.08l-6.65,4.74L68.19,119l6.65-4.75a11,11,0,0,0,4.73-9.08v-.08a11.59,11.59,0,0,1,1.32-5.34,11.94,11.94,0,0,1,4-4.44,3.42,3.42,0,0,1,3.36-.24h0a2,2,0,0,1,.47.31,4.66,4.66,0,0,1,1.37,3.7v1.65a2.55,2.55,0,0,0,4,2.08h0c2.31-1.44,2.69-4,2.69-6V63.73a3.32,3.32,0,0,1,1.88-3h0Z"/><path class="cls-6" d="M69.93,89.33l-1.29-.76A2.51,2.51,0,0,0,69.93,89.33Z"/><polygon class="cls-18" points="39.91 102.57 39.91 102.84 68.19 119.28 68.19 119.02 39.91 102.57"/><path class="cls-34" d="M89.64,92.84h0Z"/><path class="cls-12" d="M86.89,72.27l8.82,5.12a.21.21,0,0,0,.3-.18V66.6a.52.52,0,0,0-.26-.45L86.83,61a.16.16,0,0,0-.24.14V71.74A.63.63,0,0,0,86.89,72.27Z"/><path class="cls-35" d="M69.37,56.87l16.49,9.59a.1.1,0,0,0,.14-.08v-.59a.16.16,0,0,0-.08-.14l-16.5-9.58a.09.09,0,0,0-.14.08v.57A.19.19,0,0,0,69.37,56.87Z"/><path class="cls-36" d="M69.37,55.14l16.49,9.59a.1.1,0,0,0,.14-.08v-.59a.16.16,0,0,0-.08-.14l-16.5-9.58a.09.09,0,0,0-.14.08V55A.19.19,0,0,0,69.37,55.14Z"/><path class="cls-37" d="M69.37,58.6l16.49,9.59a.1.1,0,0,0,.14-.08v-.59a.16.16,0,0,0-.08-.14L69.42,57.8a.09.09,0,0,0-.14.08v.57A.19.19,0,0,0,69.37,58.6Z"/><path class="cls-38" d="M69.37,60.33l16.49,9.59a.1.1,0,0,0,.14-.08v-.59a.16.16,0,0,0-.08-.14l-16.5-9.58a.09.09,0,0,0-.14.08v.57A.19.19,0,0,0,69.37,60.33Z"/><path class="cls-39" d="M69.37,62.06l16.49,9.59a.1.1,0,0,0,.14-.08V71a.16.16,0,0,0-.08-.14l-16.5-9.58a.09.09,0,0,0-.14.08v.57A.19.19,0,0,0,69.37,62.06Z"/><path class="cls-40" d="M85.92,82.48l-5-2.89a.08.08,0,0,0-.11.07v.59a.19.19,0,0,0,.1.17l4.94,2.87a.1.1,0,0,0,.14-.08v-.59A.16.16,0,0,0,85.92,82.48Z"/><path class="cls-41" d="M69.28,73v.57a.2.2,0,0,0,.09.16L80,79.89a.1.1,0,0,0,.14-.08v-.57a.17.17,0,0,0-.09-.16L69.42,72.9A.09.09,0,0,0,69.28,73Z"/><path class="cls-42" d="M69.37,72,87,82.21a.09.09,0,0,0,.13-.08v-.59a.15.15,0,0,0-.07-.13L69.42,71.17a.09.09,0,0,0-.14.08v.57A.2.2,0,0,0,69.37,72Z"/><path class="cls-43" d="M69.37,70.25l16.49,9.58a.1.1,0,0,0,.14-.08v-.59a.16.16,0,0,0-.08-.14l-16.5-9.58a.09.09,0,0,0-.14.08v.57A.2.2,0,0,0,69.37,70.25Z"/><path class="cls-44" d="M69.37,68.51,85.86,78.1A.1.1,0,0,0,86,78v-.59a.16.16,0,0,0-.08-.14l-16.5-9.58a.09.09,0,0,0-.14.08v.57A.19.19,0,0,0,69.37,68.51Z"/><path class="cls-45" d="M69.37,80.37,85.86,90a.09.09,0,0,0,.14-.07v-.6a.16.16,0,0,0-.08-.13l-16.5-9.59a.1.1,0,0,0-.14.08v.58A.19.19,0,0,0,69.37,80.37Z"/><path class="cls-46" d="M69.26,81.94,88.5,93.07c.07.05.1,0,.1,0h0c0-.13,0-.27,0-.4v-.23a.18.18,0,0,0-.06-.14h0L69.33,81.14s-.12,0-.13.07a3.62,3.62,0,0,1-.06.46A.27.27,0,0,0,69.26,81.94Z"/><path class="cls-47" d="M68.84,83.25,88.15,94.43a.15.15,0,0,0,.21-.09l.12-.42a.17.17,0,0,0-.09-.19L69.06,82.54a.1.1,0,0,0-.14.06l-.15.4A.2.2,0,0,0,68.84,83.25Z"/><path class="cls-48" d="M69.37,78.64l16.49,9.58a.09.09,0,0,0,.14-.08v-.59a.16.16,0,0,0-.08-.13l-16.5-9.59a.1.1,0,0,0-.14.08v.58A.19.19,0,0,0,69.37,78.64Z"/><path class="cls-49" d="M69.37,76.91l16.49,9.58a.09.09,0,0,0,.14-.08v-.59a.16.16,0,0,0-.08-.13L69.42,76.1a.1.1,0,0,0-.14.08v.58A.19.19,0,0,0,69.37,76.91Z"/><path class="cls-50" d="M85.92,84,79.12,80a.06.06,0,0,0-.09,0v.66a.14.14,0,0,0,.06.11l6.77,3.92a.09.09,0,0,0,.14-.08v-.59A.16.16,0,0,0,85.92,84Z"/><path class="cls-51" d="M69.28,74.45V75a.19.19,0,0,0,.09.15l8.86,5.16a.08.08,0,0,0,.11-.07v-.63a.12.12,0,0,0-.07-.11l-8.85-5.16A.1.1,0,0,0,69.28,74.45Z"/><path class="cls-52" d="M87.72,84.34l8,4.64a.09.09,0,0,0,.13-.08v-.59a.14.14,0,0,0-.07-.13l-8-4.65a.09.09,0,0,0-.13.09v.57A.18.18,0,0,0,87.72,84.34Z"/><path class="cls-53" d="M87.72,82.61l8,4.64a.09.09,0,0,0,.13-.08v-.59a.17.17,0,0,0-.07-.14l-8-4.64a.09.09,0,0,0-.13.09v.57A.18.18,0,0,0,87.72,82.61Z"/><path class="cls-54" d="M87.72,81.09l8,4.63a.09.09,0,0,0,.13-.08V82.85a.17.17,0,0,0-.07-.13l-8-4.64a.09.09,0,0,0-.13.08v2.77A.19.19,0,0,0,87.72,81.09Z"/><path class="cls-55" d="M87.72,91l6.89,4a.08.08,0,0,0,.13-.07v-.6a.17.17,0,0,0-.07-.13l-6.9-4a.09.09,0,0,0-.13.08v.57A.18.18,0,0,0,87.72,91Z"/><path class="cls-56" d="M87.72,89.28l8,4.63a.09.09,0,0,0,.13-.08v-.59a.17.17,0,0,0-.07-.13l-8-4.64a.09.09,0,0,0-.13.08v.57A.18.18,0,0,0,87.72,89.28Z"/><path class="cls-57" d="M87.72,87.55l8,4.63a.09.09,0,0,0,.13-.08v-.59a.17.17,0,0,0-.07-.13l-8-4.64a.09.09,0,0,0-.13.08v.57A.18.18,0,0,0,87.72,87.55Z"/><path class="cls-58" d="M87.72,85.82l8,4.63a.09.09,0,0,0,.13-.08v-.59a.17.17,0,0,0-.07-.13l-8-4.64a.09.09,0,0,0-.13.08v.57A.18.18,0,0,0,87.72,85.82Z"/><path class="cls-59" d="M69.28,64.13v.57a.2.2,0,0,0,.09.16l14.71,8.56a.11.11,0,0,0,.17-.1v-.51a.22.22,0,0,0-.1-.18L69.42,64.05A.09.09,0,0,0,69.28,64.13Z"/><path class="cls-60" d="M69.37,66.75,95.88,82.18A.09.09,0,0,0,96,82.1v-.6a.16.16,0,0,0-.08-.13L69.42,65.94a.09.09,0,0,0-.14.08v.57A.2.2,0,0,0,69.37,66.75Z"/><path class="cls-61" d="M88.83,95.46c.78.58,1.32,2.52,1.33,3.65v1a.11.11,0,0,0,0,.1L93.4,102a.12.12,0,0,0,.13,0,6.22,6.22,0,0,0,1.27-1.18c.13-.17.26-.35.37-.52h0a7.45,7.45,0,0,0,.57-4L89.83,92.9a.32.32,0,0,0-.17-.06c-.07,0-.14,0-.16.22v0h0A6.1,6.1,0,0,1,88.83,95.46Z"/><path class="cls-62" d="M90.16,100.62v.14a2.61,2.61,0,0,0,0,.4l2.07,1.16a.76.76,0,0,0,.72,0l.13-.06Z"/><path class="cls-63" d="M67.86,94.93l10.84,6.32a.38.38,0,0,0,.55-.22,11.54,11.54,0,0,1,.85-2.13,11.91,11.91,0,0,1,4-4.43,3.27,3.27,0,0,1,.91-.43.2.2,0,0,0,0-.36l-1.72-1-5.93-3.47-3-1.76a1.09,1.09,0,0,0-.77-.13,3.55,3.55,0,0,0-1.16.49,11.94,11.94,0,0,0-4,4.44,11,11,0,0,0-.84,2.07A.53.53,0,0,0,67.86,94.93Z"/><path class="cls-64" d="M57.75,79.58l10.23,6,3.32,1.94a.2.2,0,0,0,.2,0l.2-.13a2.79,2.79,0,0,1,.33-.19h0s0-.06,0-.07h0l-4.09-2.39-9.42-5.49a3.41,3.41,0,0,0-.74.37Z"/><path class="cls-65" d="M56.56,80.47a.1.1,0,0,0,0,.17L68,87.31l2,1.16a.21.21,0,0,0,.24,0l.24-.21a.2.2,0,0,0,0-.33L68,86.45,57.16,80.14a.21.21,0,0,0-.23,0Z"/><path class="cls-66" d="M55.56,81.79l13.35,7.78a.25.25,0,0,0,.29,0l.22-.26a.16.16,0,0,0,0-.25l-.75-.44L56,81.22a.24.24,0,0,0-.3,0l-.2.21A.21.21,0,0,0,55.56,81.79Z"/><path class="cls-67" d="M54.56,83,68,90.78a.24.24,0,0,0,.31-.08l.17-.25a.17.17,0,0,0,0-.26L55,82.38a.22.22,0,0,0-.3.07l-.2.27A.16.16,0,0,0,54.56,83Z"/><path class="cls-68" d="M53.74,84.22h0l13.51,7.87a.21.21,0,0,0,.29-.09l.11-.22,0-.1a.12.12,0,0,0,0-.18h0L54.07,83.58a.08.08,0,0,0-.12,0c-.09.15-.17.3-.25.45v0A.11.11,0,0,0,53.74,84.22Z"/><path class="cls-69" d="M53.12,85.6l13.68,8a.07.07,0,0,0,.11,0c.06-.18.12-.35.19-.53a.08.08,0,0,0,0-.11l-13.65-8a.1.1,0,0,0-.13,0c-.07.18-.14.35-.2.53A.08.08,0,0,0,53.12,85.6Z"/><path class="cls-70" d="M52.49,88.05a.23.23,0,0,0,.12.23l26.05,15.15a.09.09,0,0,0,.13-.08v-.59a.15.15,0,0,0-.07-.13l-26-15.12a.11.11,0,0,0-.17.08Z"/><path class="cls-71" d="M52.39,90.13a.21.21,0,0,0,.09.18l26.18,15.22h0a.09.09,0,0,0,.08-.09v-.59a.19.19,0,0,0,0-.08.12.12,0,0,0,0,0L52.57,89.52a.11.11,0,0,0-.16.1C52.41,89.79,52.4,90,52.39,90.13Z"/><path class="cls-72" d="M52.1,92a.21.21,0,0,0,.09.23l26,15.11a.11.11,0,0,0,.17-.06l.12-.47a.14.14,0,0,0-.07-.17l-26-15.14a.12.12,0,0,0-.18.08C52.17,91.73,52.13,91.87,52.1,92Z"/><path class="cls-73" d="M51.53,93.73a.21.21,0,0,0,.08.27l25.92,15.08a.12.12,0,0,0,.16,0c.07-.14.13-.28.2-.43a.15.15,0,0,0-.07-.19l-26-15.1a.13.13,0,0,0-.19.07C51.62,93.5,51.57,93.62,51.53,93.73Z"/><path class="cls-74" d="M50.66,95.37a.14.14,0,0,0,0,.2l25.92,15.07a.11.11,0,0,0,.15,0l.27-.39a.13.13,0,0,0,0-.18L51.08,95a.13.13,0,0,0-.2.06Z"/><path class="cls-75" d="M49.56,96.83a.12.12,0,0,0,0,.19l25.86,15a.12.12,0,0,0,.15,0l.34-.36a.12.12,0,0,0,0-.19l-25.84-15a.19.19,0,0,0-.23.05Z"/><path class="cls-76" d="M61.93,106.08a.14.14,0,0,0,0,.23l12,7a.14.14,0,0,0,.15,0l.42-.32a.11.11,0,0,0,0-.18l-12.06-7a.21.21,0,0,0-.24,0Z"/><path class="cls-15" d="M98.75,60.73a3.36,3.36,0,0,0-1.88,3v33.1c0,3.09-1,4.9-2.7,6a2.55,2.55,0,0,1-4-2.08V99.11a4.74,4.74,0,0,0-.89-3.17,3.19,3.19,0,0,0-2.67-1.13,4.84,4.84,0,0,0-2.37,1,11.21,11.21,0,0,0-4.28,6.6c-.47,2.14-.3,4.42-1,6.49a12.79,12.79,0,0,1-4.71,5.75c-1.23.94-6,4.32-6,4.32v.22s3.93-2.73,5.86-4.15a14.28,14.28,0,0,0,4.84-5.44c1.19-2.76.71-5.82,1.68-8.66a10.28,10.28,0,0,1,4.18-5.22A3.49,3.49,0,0,1,87.53,95a3,3,0,0,1,1.84,1.7,8.49,8.49,0,0,1,.6,3.59,3,3,0,0,0,1,2.54,2.71,2.71,0,0,0,3.29.23,4.88,4.88,0,0,0,1.9-1.95c1.07-1.69.93-4.65.93-4.65s0-32.36,0-32.77a3.18,3.18,0,0,1,1.66-2.77l5.45-3.14v-.17Z"/><text/><path class="cls-6" d="M89.66,66.41a3,3,0,0,0,1.46,2.31c.81.46,1.46.19,1.46-.62a3,3,0,0,0-1.46-2.31C90.31,65.33,89.66,65.61,89.66,66.41Z"/><path class="cls-6" d="M87.81,70.48l6.62,3.81a6.84,6.84,0,0,0-3.31-5.2,2.69,2.69,0,0,0-2.34-.38A1.76,1.76,0,0,0,87.81,70.48Z"/><polygon class="cls-12" points="87.89 73.63 88.2 74.45 88.9 74.95 88.39 75.16 88.51 75.92 87.89 75.23 87.26 75.2 87.38 74.57 86.87 73.78 87.57 74.08 87.89 73.63"/><polygon class="cls-12" points="90.61 75.21 90.92 76.03 91.63 76.54 91.12 76.74 91.24 77.51 90.61 76.81 89.98 76.78 90.1 76.15 89.6 75.36 90.3 75.67 90.61 75.21"/><polygon class="cls-12" points="93.34 76.79 93.65 77.61 94.35 78.12 93.84 78.32 93.96 79.09 93.34 78.39 92.71 78.36 92.83 77.73 92.32 76.94 93.02 77.25 93.34 76.79"/><g class="cls-77"><path class="cls-78" d="M80,28.88a.68.68,0,0,1-.2-.07l-12-6.9a.94.94,0,0,1-.47-.79V10.38a.46.46,0,0,1,.24-.42.57.57,0,0,1,.52,0l12,6.89a.92.92,0,0,1,.48.78V28.43a.45.45,0,0,1-.24.41A.51.51,0,0,1,80,28.88Z"/></g><polygon class="cls-12" points="73.68 16.05 74.59 18.44 76.64 19.92 75.16 20.51 75.51 22.75 73.68 20.73 71.84 20.63 72.19 18.8 70.71 16.5 72.76 17.38 73.68 16.05"/><path class="cls-79" d="M111.21,45.08c.31.69,0,1.25-.69,1.25a2.21,2.21,0,0,1-1.82-1.25c-.31-.69,0-1.26.7-1.26A2.21,2.21,0,0,1,111.21,45.08Z"/><path class="cls-79" d="M134.07,100.67c.31.7,0,1.26-.69,1.26a2.2,2.2,0,0,1-1.82-1.26c-.31-.69,0-1.25.7-1.25A2.2,2.2,0,0,1,134.07,100.67Z"/><path class="cls-79" d="M52.79,25.08c.31.69,0,1.25-.69,1.25a2.21,2.21,0,0,1-1.82-1.25c-.3-.69,0-1.26.7-1.26A2.2,2.2,0,0,1,52.79,25.08Z"/><line class="cls-80" x1="85.74" y1="23.93" x2="85.74" y2="26.23"/><line class="cls-80" x1="86.81" y1="25.63" x2="84.66" y2="24.39"/><line class="cls-80" x1="120.84" y1="35.63" x2="120.84" y2="37.93"/><line class="cls-80" x1="121.92" y1="37.33" x2="119.77" y2="36.09"/><line class="cls-80" x1="59.84" y1="15.1" x2="59.84" y2="17.39"/><line class="cls-80" x1="60.91" y1="16.79" x2="58.76" y2="15.55"/><line class="cls-80" x1="141.46" y1="95.79" x2="141.46" y2="98.08"/><line class="cls-80" x1="142.53" y1="97.48" x2="140.38" y2="96.24"/><line class="cls-80" x1="131.25" y1="77.61" x2="131.25" y2="79.9"/><line class="cls-80" x1="132.33" y1="79.3" x2="130.18" y2="78.06"/><path class="cls-81" d="M128.1,120.43,150,133.07a1.29,1.29,0,0,1,0,2.24L117.61,154a3.83,3.83,0,0,1-3.82,0L91.71,141.47a1.29,1.29,0,0,1,0-2.24l32.56-18.8A3.87,3.87,0,0,1,128.1,120.43Z"/><path class="cls-15" d="M128.1,114.57l22.54,12.87v.89a1.29,1.29,0,0,1-.65,1.12l-32.38,18.69a3.83,3.83,0,0,1-3.82,0L91.71,135.61a1.28,1.28,0,0,1-.65-1.09c0-.44,0-.91,0-.91l33.2-19A3.87,3.87,0,0,1,128.1,114.57Z"/><path class="cls-16" d="M128.1,113.69,150,126.33a1.29,1.29,0,0,1,0,2.23l-32.38,18.69a3.83,3.83,0,0,1-3.82,0L91.71,134.73a1.29,1.29,0,0,1,0-2.24l32.56-18.8A3.82,3.82,0,0,1,128.1,113.69Z"/><polygon class="cls-13" points="125.48 115.52 146.59 127.7 116.89 144.85 95.61 132.76 125.48 115.52"/><ellipse class="cls-82" cx="117.89" cy="132.15" rx="7.11" ry="12.57" transform="translate(-29.47 230.37) rotate(-81.95)"/><path class="cls-83" d="M113.4,127.66c3.91-1,9.1.11,11.58,2.59s1.32,5.35-2.6,6.39-9.09-.11-11.57-2.59S109.49,128.71,113.4,127.66Z"/><path class="cls-84" d="M115.08,129.34a8.25,8.25,0,0,1,7.25,1.62c1.55,1.56.83,3.35-1.62,4s-5.7-.07-7.26-1.63S112.62,130,115.08,129.34Z"/><polygon class="cls-12" points="115.56 129.84 117.78 130.87 119.83 130.36 119.59 131.94 121.44 133.31 119.08 133.26 118.17 134.62 116.95 133 114.54 132.47 116.14 131.52 115.56 129.84"/><path class="cls-85" d="M102.59,141.79v-.88l4.86-3a.6.6,0,0,0,.13-.09.85.85,0,0,0,.27-.37,1,1,0,0,0,.06-.5l1.64-1,.08-.05.06-.07a8.7,8.7,0,0,0,3.59.62c3.13-.1,5.64-1.62,5.73-3.44h0v-.16h0l0-1h0v0h0c-.09-1.88-2.73-3.31-5.93-3.22s-5.78,1.71-5.73,3.59l0,1a2.63,2.63,0,0,0,1.07,1.9l-1.23.76a.9.9,0,0,0-.48-.09.72.72,0,0,0-.25.07l0,0,0,0h0l0,0-6,3.7v.88Z"/><path class="cls-15" d="M106.66,129.29a3.08,3.08,0,0,0,.08.53c.49,1.7,3.06,2.94,6.1,2.85s5.54-1.48,5.92-3.2c0-.18.06-1.63.06-1.63s-1.6-3.17-6.19-3.11c-2.77,0-6,3.47-6,3.47S106.65,129,106.66,129.29Zm1,0A1.92,1.92,0,0,1,108,128a7,7,0,0,1,9.35-.28,2,2,0,0,1,.47,1.2c.05,1.65-2.2,2.3-5,2.38S107.68,130.92,107.63,129.26Z"/><path class="cls-86" d="M107.39,128.2c0,1.69,2.48,3,5.42,2.9s5.28-1.52,5.23-3.21-2.47-3-5.41-2.91S107.34,126.51,107.39,128.2Z"/><path class="cls-87" d="M109.66,125.58c5.3.11,6.89,2.72,7.34,4.2a2.39,2.39,0,0,0,1-1.89c-.05-1.69-2.46-2.93-5.4-2.85A8.75,8.75,0,0,0,109.66,125.58Z"/><path class="cls-88" d="M107.92,128.27c0,1.49,2.19,2.64,4.79,2.56s4.68-1.35,4.63-2.84a.53.53,0,0,0,0-.13c-.14,1.4-2.14,2.56-4.62,2.63s-4.62-1-4.78-2.43A1.48,1.48,0,0,0,107.92,128.27Z"/><path class="cls-15" d="M107.2,127.15l1.38-1.44,4-1,4,.75,1.46,1.35.38.84-.58.2s-.68-2.74-5.28-2.6-5.11,2.91-5.11,2.91l-.59-.17Z"/><path class="cls-89" d="M106.66,128.2a3.08,3.08,0,0,0,.08.53c.49,1.7,3.06,2.94,6.1,2.85s5.54-1.47,5.92-3.2a2.48,2.48,0,0,0,.06-.54c-.06-2-2.83-3.48-6.19-3.38S106.6,126.23,106.66,128.2Zm1,0A1.94,1.94,0,0,1,108,127a7,7,0,0,1,9.35-.28,2,2,0,0,1,.47,1.2c.05,1.66-2.2,3.07-5,3.15S107.68,129.83,107.63,128.17Z"/><path class="cls-6" d="M106.66,128.2a3.08,3.08,0,0,0,.08.53c.49,1.7,3.06,2.94,6.1,2.85s5.54-1.47,5.92-3.2a2.48,2.48,0,0,0,.06-.54c-.06-2-2.83-3.48-6.19-3.38S106.6,126.23,106.66,128.2Zm1,0A1.94,1.94,0,0,1,108,127a7,7,0,0,1,9.35-.28,2,2,0,0,1,.47,1.2c.05,1.66-2.2,3.07-5,3.15S107.68,129.83,107.63,128.17Z"/><path class="cls-90" d="M105.93,132.41l.12.18h0l.52.77.13.2,2.29-1.43h0l.08,0a.5.5,0,0,0,.16-.22.57.57,0,0,0,0-.14h0a.82.82,0,0,0-.08-.45.78.78,0,0,0-.39-.39.59.59,0,0,0-.26,0l-.15,0h0l0,0h0Z"/><path class="cls-6" d="M105.93,132.41l.12.18h0l2.75-1.71a.59.59,0,0,0-.26,0l-.15,0h0l0,0h0Z"/><path class="cls-15" d="M106.57,133.36l.13.2,2.29-1.43h0l.08,0a.5.5,0,0,0,.16-.22.57.57,0,0,0,0-.14Z"/><path class="cls-91" d="M98.66,136.4,99,137l.85,1.5,7-4.3h0l.15-.09a.83.83,0,0,0,.27-.38,1.29,1.29,0,0,0-.07-1,1.41,1.41,0,0,0-.23-.35h0a1.09,1.09,0,0,0-.9-.38.59.59,0,0,0-.26.07l0,0-.06,0a0,0,0,0,1,0,0l0,0Z"/><path class="cls-92" d="M98.66,136.4,99,137l.83-.25,7.09-4.4h0a1.09,1.09,0,0,0-.9-.38.59.59,0,0,0-.26.07l0,0-.06,0a0,0,0,0,1,0,0l0,0Z"/><path class="cls-93" d="M98.31,137.91a1.11,1.11,0,0,0,1.39.67h0a.46.46,0,0,0,.15-.09.86.86,0,0,0,.27-.38,1.29,1.29,0,0,0-.07-1,1.18,1.18,0,0,0-1.13-.75.84.84,0,0,0-.26.07l0,0-.05,0h0A1.16,1.16,0,0,0,98.31,137.91Z"/><path class="cls-6" d="M118.82,122.44l6.92,4c2.2-1.68,1.83-3,.34-4A6.62,6.62,0,0,0,118.82,122.44Z"/><g class="cls-94"><path class="cls-15" d="M133.35,130.9a.19.19,0,0,1-.1,0l-6.8-4a.21.21,0,1,1,.21-.37l6.8,4a.21.21,0,0,1-.11.4Z"/><path class="cls-15" d="M134.13,130.45a.18.18,0,0,1-.1,0l-6.8-4a.21.21,0,0,1-.08-.29.22.22,0,0,1,.29-.08l6.8,4a.21.21,0,0,1,.08.29A.21.21,0,0,1,134.13,130.45Z"/><path class="cls-15" d="M134.91,130a.23.23,0,0,1-.11,0L128,126a.21.21,0,1,1,.21-.37l6.8,4a.21.21,0,0,1,.07.29A.2.2,0,0,1,134.91,130Z"/><path class="cls-15" d="M135.69,129.56a.23.23,0,0,1-.11,0l-6.8-4a.21.21,0,0,1-.07-.29.21.21,0,0,1,.29-.08l6.8,4a.21.21,0,0,1,.07.29A.22.22,0,0,1,135.69,129.56Z"/><path class="cls-15" d="M136.47,129.12a.2.2,0,0,1-.11,0l-6.8-4a.21.21,0,1,1,.22-.36l6.79,4a.21.21,0,0,1,.08.29A.21.21,0,0,1,136.47,129.12Z"/></g><path class="cls-6" d="M128.67,119.56a2.53,2.53,0,0,0-2.74.43,1.16,1.16,0,0,0,.39,2,2.55,2.55,0,0,0,2.75-.44A1.15,1.15,0,0,0,128.67,119.56Z"/><polygon class="cls-21" points="126.31 89.38 126.31 103.21 125.38 103.72 112.5 94.03 110.49 81.31 111.42 80.81 126.31 89.38"/><polygon class="cls-20" points="126.31 89.38 126.31 103.21 125.38 103.72 112.5 94.03 125.38 89.89 126.31 89.38"/><polygon class="cls-12" points="125.38 89.89 125.38 103.72 110.49 95.14 110.49 81.31 125.38 89.89"/><polygon class="cls-6" points="112.34 85.87 112.34 87.02 117.72 93.05 123.11 93.18 123.11 92.03 112.34 85.87"/><polygon class="cls-6" points="117.72 93.72 112.34 87.69 112.34 93.58 123.11 99.75 123.11 93.85 117.72 93.72"/><polygon class="cls-21" points="60.25 44.57 60.25 54.31 59.22 54.88 50.15 48.06 48.73 39.1 49.77 38.53 60.25 44.57"/><polygon class="cls-20" points="60.25 44.57 60.25 54.31 59.22 54.88 50.15 48.06 59.22 45.15 60.25 44.57"/><polygon class="cls-12" points="59.22 45.15 59.22 54.88 48.73 48.84 48.73 39.1 59.22 45.15"/><polyline class="cls-95" points="51.37 45.95 52.78 48.76 56.87 45.77"/><path class="cls-96" d="M30.5,106.2s1.26.23,1.54,0,1.48-1.37,1.65-1.54a15.55,15.55,0,0,1,2.75-.75c.2,0,1.05.09,1,.22a20.37,20.37,0,0,1-1.68,1.66c-.17.14-.71.58-.8.86s-.87,1.2-1.43,1.23a4.5,4.5,0,0,1-.69,0l-2.79.39"/><path class="cls-97" d="M38.69,101.88a3.74,3.74,0,0,1-.84.68,2.26,2.26,0,0,1-.44.08,6.57,6.57,0,0,0-1.95.56,5.17,5.17,0,0,0-1.15,1.33.11.11,0,0,0,0,.08s0,0,0,.08c.28.25.64,0,.84-.23s.5-.43.55-.34a3.1,3.1,0,0,1-.63,1.79c-.38.44-1.48.93-1.29,1.14s.3.15.71.06a3.25,3.25,0,0,0,1.58-.28,5.51,5.51,0,0,0,1.21-1.2c.26-.29.47-.67.84-1a14.56,14.56,0,0,1,1.34-.88Z"/><path class="cls-6" d="M41.14,78.55a3.71,3.71,0,0,0-3.5,2.28c-.83,1.74-.42,4.21-.39,5.22.1,3.57.46,7.13.81,10.69.23,2.27.45,4.55.68,6.82a1,1,0,0,0,.1.43.8.8,0,0,0,1.17.12,2.3,2.3,0,0,0,.64-1.15,16.34,16.34,0,0,0,.89-5.7,57.87,57.87,0,0,0-1.21-5.91c-.45-2.61-.21-5.33-1-7.86"/><path class="cls-98" d="M40.46,85.23c.13.6-2.28-.61-2.17,0s.54,7.47.63,8.31c.16,1.41-.35,3.27-.22,4.68a9.9,9.9,0,0,0,.41,2.35,1,1,0,0,0,.53.7.7.7,0,0,0,.43,0c.61-.16,1-.78,1.24-1.33"/><path class="cls-99" d="M55.14,136.12c-1.6-3.33-5.37-5.34-8.62-6.75a18.12,18.12,0,0,0-5-1.28,7.14,7.14,0,0,0-4.89.72c-1.39.95-2,3.17-.79,4.34a8.84,8.84,0,0,0,2,1.11A10.86,10.86,0,0,1,41,137.57a15.54,15.54,0,0,0,4.6,4.36,9,9,0,0,0,6.12,1.22,4.62,4.62,0,0,0,3.46-7Z"/><path class="cls-100" d="M52.53,133.8s-.17.68-.27,1.26-.13,1.3-.19,1.91a8.45,8.45,0,0,1-.89,2.41,2.35,2.35,0,0,1-1.27.9,4.1,4.1,0,0,1-1.95,0,1,1,0,0,1-.5-.5"/><path class="cls-100" d="M37.58,131.59c0,.38.57.64,1.14.69a5.71,5.71,0,0,0,1.87-.27,9,9,0,0,0,1.45-.54,1.87,1.87,0,0,1,1.07-.1v.14a4.92,4.92,0,0,0,2.6-.44h0s0-.3,0-.56-.05-.54-.05-.54l-8.08,1.35Z"/><path class="cls-101" d="M47.23,139.1l0,.21a1,1,0,0,0,.7.82,3,3,0,0,0,2.85-.63A7.06,7.06,0,0,0,52,135.66a5.06,5.06,0,0,1,.61-2.22H49.45a.43.43,0,0,0-.07.1,19.06,19.06,0,0,0-2.09,4.57A3.86,3.86,0,0,0,47.23,139.1Z"/><path class="cls-102" d="M47.23,139.1a.19.19,0,0,0,0-.08,16.1,16.1,0,0,1,1.24-3c.38-.76,1.09-2.15,1.09-2.15l-.21-.37a19.06,19.06,0,0,0-2.09,4.57A3.86,3.86,0,0,0,47.23,139.1Z"/><path class="cls-103" d="M47.26,139.31a1,1,0,0,0,.69.82,3.07,3.07,0,0,0,2.86-.63A7.06,7.06,0,0,0,52,135.66a5.13,5.13,0,0,1,.61-2.23H51.32l-.1.67a12.66,12.66,0,0,1-.68,4,2.57,2.57,0,0,1-2.31,1.57c-.5,0-.83-.1-1-.37Z"/><path class="cls-101" d="M37.58,131.46a.52.52,0,0,0,.28.41,4.51,4.51,0,0,0,2.31,0,26.59,26.59,0,0,1,2.58-.83c.66-.06,1.94-.18,2.27-.27a.93.93,0,0,0,.73-.9,2,2,0,0,0-.25-1.13l-.52,0-3,.2h-.07l-1.56.56a5.55,5.55,0,0,0-2.23,1,2.38,2.38,0,0,0-.27.31h0A1,1,0,0,0,37.58,131.46Z"/><path class="cls-102" d="M37.8,130.81a6.83,6.83,0,0,1,2.39-1c.87-.22,1.7-.49,1.7-.49s0-.17,0-.38h-.07l-1.56.56a5.55,5.55,0,0,0-2.23,1A2.38,2.38,0,0,0,37.8,130.81Z"/><path class="cls-103" d="M37.58,131.46a.52.52,0,0,0,.28.41,4.51,4.51,0,0,0,2.31,0,26.59,26.59,0,0,1,2.58-.83c.66-.07,1.94-.18,2.27-.27a.93.93,0,0,0,.73-.9,2,2,0,0,0-.25-1.13l-.52,0,0,.16s.48.67.16,1.17-1.51.43-2.23.52-1.77.67-2.78.84-2.21.32-2.57,0Z"/><path class="cls-92" d="M39.93,112.28c.13.51.23,1,.32,1.49v0q.12.7.21,1.35s0,0,0,0a2.23,2.23,0,0,1,0,.23c0,.11,0,.22,0,.32.14.87.38,2.66.59,5.1a.09.09,0,0,1,0,0c.08.81.16,1.91.22,3.07,0,.27,0,.54,0,.81.08,1.53.14,3.08.17,4.21a.79.79,0,0,0,.42.68,1.45,1.45,0,0,0,.67.18,4.68,4.68,0,0,0,1.63-.22,3.52,3.52,0,0,0,.92-.47.88.88,0,0,0,.35-.73c0-1-.09-3.52,0-6.07.12-3.23.37-9.32.37-9.32l-1.14-10.2-2.11-.47c.11-.6.22-1.28.31-1.76s.1-.62.1-.62H39a1.23,1.23,0,0,0,0,.18A47.9,47.9,0,0,0,39.93,112.28Z"/><path class="cls-104" d="M39.93,112.28c.13.51.23,1,.32,1.49,0-.35-.42-3.72-.6-5.44s.12-7.5.12-7.5l-.8-.67A47.9,47.9,0,0,0,39.93,112.28Z"/><path class="cls-91" d="M41.74,101.56a62.88,62.88,0,0,0,1.52,11.92c.86,3.66,1,10.94,1,16.14a3.52,3.52,0,0,0,.92-.47.88.88,0,0,0,.35-.73c0-1-.08-3.52,0-6.07.12-3.23.37-9.32.37-9.32l-1.13-10.2-2.12-.47c.11-.6.23-1.28.31-1.76Z"/><path class="cls-92" d="M43.54,102.07A46.52,46.52,0,0,0,46,117.58h0c.52,1.29.92,2.34,1,2.79.23.91,1.28,10.1,1.53,12.32a2.39,2.39,0,0,0,.35,1,1.92,1.92,0,0,0,1.93,1,5.3,5.3,0,0,0,.83-.17,6.39,6.39,0,0,0,1.07-.43.8.8,0,0,0,.44-.74c-.07-2.38-.38-12.81-.58-14.11A78.42,78.42,0,0,1,51,108.75a6.31,6.31,0,0,1,.26-2.52,6.75,6.75,0,0,0,.07-4.09s-.27.09-.62.23c0-.56,0-.81,0-.81h-.2l-7.25.16Z"/><path class="cls-91" d="M48.24,106.47c-.22,2.07,2.14,11.25,2.39,13.61s1,14.51,1,14.51h0a6.39,6.39,0,0,0,1.07-.43.8.8,0,0,0,.44-.74c-.07-2.38-.38-12.81-.58-14.11A78.42,78.42,0,0,1,51,108.75a6.31,6.31,0,0,1,.26-2.52,6.75,6.75,0,0,0,.07-4.09s-.27.09-.62.23c0-.56,0-.81,0-.81h-.2c-1.31.73-2.43,1.43-2.43,1.43A12.15,12.15,0,0,1,48.24,106.47Z"/><path class="cls-105" d="M51.4,102a4,4,0,0,1,.11.57.26.26,0,0,1-.11.27,8.74,8.74,0,0,1-1.57.74,8,8,0,0,1-3.33.36,23.18,23.18,0,0,1-6.82-2.44,1.81,1.81,0,0,1-.8-1.81v0C39,99.15,51.4,102,51.4,102Z"/><path class="cls-6" d="M39.46,91.32c0,.44,0,.88,0,1.33a14.9,14.9,0,0,1-.22,3c-.15.83-.32,1.85-.44,2.59-.23,1.46.17,2.53.9,3h0a19.93,19.93,0,0,0,6.52,2.39,5.59,5.59,0,0,0,.7.09,5.94,5.94,0,0,0,1.52-.06,4.42,4.42,0,0,0,.61-.13l.19-.06a2.78,2.78,0,0,0,.63-.29,1.89,1.89,0,0,0,1.1-1.62,10.52,10.52,0,0,0-.54-2.91c-.59-2.9.9-5.49,1.72-8.16.38-1.24.75-2.48,1.06-3.74a7.62,7.62,0,0,0,.38-2.46.11.11,0,0,0,0,0,3.84,3.84,0,0,0-.13-.57,4.29,4.29,0,0,0-1.19-1.47,13.62,13.62,0,0,0-1.61-1.23l-.06,0a12.71,12.71,0,0,0-1.23-.71c-.42-.21-1-.45-1.7-.74-.27-.11-.54-.2-.82-.29-.52-.16-1-.29-1.58-.4-.82-.17-1.65-.3-2.45-.46h-.41a20.3,20.3,0,0,0-2.88.6s-.86,1.62-1.34,2.57C37.48,83,39,88.56,39.46,91.32Z"/><path class="cls-98" d="M52.6,83.7c-1.22-2.09-4.28-3.12-4.81-3.29-1.64,2.42-3.54,2.47-3.54,2.47l-.08-1-.52.38-.36,5.59-.6-1.41.46-4.75,1.78-2.27,2-.24c.28.09.55.18.82.29a16.06,16.06,0,0,1,2.34,1.09l.06,0,.18.12.22.13.13.08.06,0a13.62,13.62,0,0,1,1.61,1.23h0a4.29,4.29,0,0,1,1.19,1.47l0,.1a3.13,3.13,0,0,1,.1.47h0C53.93,85.89,53,85.85,52.6,83.7Z"/><path class="cls-98" d="M43.31,81a5.62,5.62,0,0,0-.74.8c-.21.28-.36.61-.56.9a4,4,0,0,1,0-.91,6.24,6.24,0,0,1,.07-1,4.72,4.72,0,0,1,.65-1.73c.1.09.11.24.15.36s.26.34.33.53,0,.45.06.66"/><path class="cls-96" d="M47.31,76.48v2.21s-2.26,1.63-3.46,1.39c-.51-.1-.78-.76-.68-1.69l1.1-.22Z"/><path class="cls-6" d="M43.58,80,42.3,81.47a4.53,4.53,0,0,1,.81-2.74c.84-.9.87-.12.87-.12S43.19,79.52,43.58,80Z"/><path class="cls-97" d="M41.07,73.54a12.89,12.89,0,0,0,.2,3.54c.38,1.69.5,2.07,1.18,2.37a2.26,2.26,0,0,0,2.44-.4,5.8,5.8,0,0,0,1.78-1.94s.16.11.57-.35A2.47,2.47,0,0,0,48,74.69a6.82,6.82,0,0,0-1-3.5c-.76-1.28-3.11-.87-4.17-.32A3.53,3.53,0,0,0,41.07,73.54Z"/><path class="cls-106" d="M40.15,73.62c1.17,2.07,4.09.71,4.09.71.21.9.84,1,1.14,1.15s.37,1,.37,1H46a6.64,6.64,0,0,1,.14-1.32.78.78,0,0,1,1.37-.13c.37.57-.06,1.21-.3,1.69a2.21,2.21,0,0,0,.07,1.07,3.56,3.56,0,0,0,.75-1.34,9.24,9.24,0,0,0,0-4.8,2.6,2.6,0,0,0-.24-.59c-.9-1.51-3.45-1.8-4.45-1.46s-3,1.27-3.41,2.65A1.66,1.66,0,0,0,40.15,73.62Z"/><path class="cls-92" d="M40.06,114.91c0,.11,0,.22,0,.32C40.09,115.1,40.08,115,40.06,114.91Z"/><path class="cls-92" d="M40,114.63a.09.09,0,0,0,0,.05A.18.18,0,0,1,40,114.63Z"/><path class="cls-107" d="M49.1,88.89a13.81,13.81,0,0,0,.38-3.13c-.06-1.24-.75-.13-.81.89a24.4,24.4,0,0,1-.67,3.2"/><path class="cls-6" d="M47.31,78.46a2.35,2.35,0,0,1,.25.46,4.93,4.93,0,0,1,.16.51,6,6,0,0,1-3.47,2.73L44,80.1A6,6,0,0,0,47.31,78.46Z"/><path class="cls-98" d="M48.7,96l-.08-.39,1.55-1.69s.25,2.65.35,3.53,1.17,3.69,1.12,4.67-3.14,1.52-3.14,1.52a11.18,11.18,0,0,0,.79-3.64A18.6,18.6,0,0,0,49,97.41c-.08-.5-.1-2-.75-2a1.64,1.64,0,0,0-.49.1c-.84.29-2,1.6-2.83,1.92S43,98.74,42.37,98c.66-.88,2.66-3.16,2.82-3.43s3.05-6.87,3.55-7.71c.32,1.93.58,4.31.9,6.23"/><path class="cls-92" d="M44,80.1l.21,1.47-.73.59-.75-.25,0-.85.93-1.1A.75.75,0,0,0,44,80.1Z"/><path class="cls-92" d="M43.43,82.48c0-.11,0-.22,0-.32l-.75-.25s-.52,2.88-.56,3.1C41.7,87.7,41.32,90.4,41,93.1c-.17,1.25-.3,2.21-.34,2.59a.6.6,0,0,0,0,.35l.76,2a10.55,10.55,0,0,0,1.88-2C43.27,95.68,43.32,86.16,43.43,82.48Zm-1.67,5.07h0S41.76,87.59,41.76,87.55Z"/><path class="cls-108" d="M40.15,73.62c1.17,2.07,4.09.71,4.09.71.21.9.84,1,1.14,1.15s.37,1,.37,1H46a6.64,6.64,0,0,1,.14-1.32.78.78,0,0,1,1.37-.13c.37.57-.06,1.21-.3,1.69a2.21,2.21,0,0,0,.07,1.07,3.56,3.56,0,0,0,.75-1.34,9.24,9.24,0,0,0,0-4.8,2.6,2.6,0,0,0-.24-.59,14.22,14.22,0,0,1-3.38,2.19c-1.84.77-3.26.6-3.72.21A1.78,1.78,0,0,1,40,72.3h0A1.66,1.66,0,0,0,40.15,73.62Z"/><path class="cls-6" d="M48.67,86.65a47.54,47.54,0,0,1-3.29,8.63c-2.9,2.34-5,4.9-7.34,7.07.44.83.43,1.31.87,2.14.67-.16,6.41-4.21,8.81-5.77s3.1-2.94,4.2-5.57a23.78,23.78,0,0,0,1.72-9"/><path class="cls-98" d="M53.64,84.2l-.86.11a28.47,28.47,0,0,1-2.19,8.84c-1.1,2.63-1.81,4-4.21,5.57-1.88,1.22-5.81,4-7.74,5.18a4.85,4.85,0,0,0,.27.59c.67-.16,6.41-4.21,8.81-5.77s3.1-2.94,4.2-5.57A23.78,23.78,0,0,0,53.64,84.2Z"/><path class="cls-96" d="M34.08,105a7.92,7.92,0,0,0,.94-.41,5.08,5.08,0,0,1,1.16-.28.49.49,0,0,1-.28.68,7.4,7.4,0,0,0-.72.41A3.93,3.93,0,0,1,33.36,107"/><path class="cls-109" d="M35.9,105a7.63,7.63,0,0,1-.67.49l0,0a3.54,3.54,0,0,1-.79,1,2.31,2.31,0,0,1-1.11.54,5.45,5.45,0,0,0,1.73-1.61l0,0h0Z"/><path class="cls-109" d="M34.15,104.88c.13,0,.23-.1.35-.15a3,3,0,0,1,.36-.17,2.43,2.43,0,0,1,.81-.16,2.76,2.76,0,0,1-.71.39l-.39.12C34.44,104.93,34.27,105,34.15,104.88Z"/><path class="cls-110" d="M30.77,106.3l.63-.1s.41.27.49.52a2.72,2.72,0,0,1,0,1.37l-2,.6"/><path class="cls-111" d="M13.6,98.41s5,6,6.07,6.21S31,106.2,31,106.2a1,1,0,0,1,.64.77,3.91,3.91,0,0,1-.3,1.48s-10.76,1.27-11.73,1-10-8-10-8"/><path class="cls-13" d="M19.93,108.06c-.8-.21-7.12-5.56-9.27-7.39l-1,.79s9,7.76,10,8,11.73-1,11.73-1,.1-.25.19-.57C30.46,107.92,20.84,108.3,19.93,108.06Z"/><path class="cls-112" d="M31.31,153.87a20.35,20.35,0,0,0,.37-3.48c.05-2-.45-4.15-2.69-4.5a34.83,34.83,0,0,0-10.68.44c-2.88.45-6.63.45-9,2.41-3.59,3,1.06,6.83,3.57,8.55,4.79,3.29,11.75,7.48,16.32,1.43A12,12,0,0,0,31.31,153.87Z"/><path class="cls-100" d="M11.89,154.68v.07s0,0,0,0a1.33,1.33,0,0,0,1.18.89l.17,0h.07c.19,0,.41,0,.66,0l.22,0a5.26,5.26,0,0,0,2.09-1.14l.07-.06v-.18s.63-.43.87-.57c.71-.42,1.73-.78,2.71-1.26a2.85,2.85,0,0,0,.68-.46.43.43,0,0,1,.1-.09l.05-.06.06-.08.11-.16,0-.08,0-.07a.24.24,0,0,0,0-.08h0a1.19,1.19,0,0,0,.06-.37v-.64l-5.94,2.43-3.25,1.22Z"/><path class="cls-101" d="M15.43,150.25a24.17,24.17,0,0,0,2.61-.33c1.62-.27,2.74-.35,2.95.15s.25,1-1.2,2-2.57,1.1-3.73,2a4.07,4.07,0,0,1-2.49.92,1.7,1.7,0,0,1-1.64-.63,4,4,0,0,1,0-2.37"/><path class="cls-100" d="M17.73,155.62v.81a.78.78,0,0,0,.41.7,1.2,1.2,0,0,0,.35.09A12,12,0,0,0,21,157.1v-.3l2.18-.26a9.9,9.9,0,0,0,3.36-1,.74.74,0,0,0,.39-.65v-.59l-6.38,1.13Z"/><path class="cls-101" d="M22.21,152.8a2.6,2.6,0,0,0,1.55.67,8.51,8.51,0,0,1,2.88.27.66.66,0,0,1,.33.52,1.12,1.12,0,0,1-.22.65c-.32.46-2.43,1.15-4,1.27s-1.67.11-2.42.23a3.62,3.62,0,0,1-2,0,1.76,1.76,0,0,1-.37-2.46C18.43,153.09,22.21,152.8,22.21,152.8Z"/><path class="cls-97" d="M13.54,93.69l-.13.3.2,1,3.18,1.6.18,0,.51-.07.8-.1v-1.1A1.44,1.44,0,0,1,19.11,94h0a1.58,1.58,0,0,0,.54-.37l.05,0c.61-.65,1.16-2.11,1-5.3a6,6,0,0,0-.41-2c-.46-.88-1.44-1.47-3.47-.91-3.37.93-4.84,2.46-5,3.78S13.54,93.69,13.54,93.69Z"/><path class="cls-96" d="M18.28,96.39v-1.1A1.44,1.44,0,0,1,19.11,94c-.17.07-.68.32-1.36.68-.28.15-.27,1-.27,1.86Z"/><path class="cls-113" d="M23.4,102.07l6.73,3.46L33.2,95.7a.74.74,0,0,0-.35-.87l-5.63-2.89a.53.53,0,0,0-.76.33Z"/><path class="cls-12" d="M23.84,101.86l6,3.1,2.86-9.13c.11-.41.09-.6-.33-.8l-5.26-2.72a.23.23,0,0,0-.33.15Z"/><path class="cls-114" d="M29.2,96.73l1.86,1a.09.09,0,0,0,.13-.06l.51-1.7a.1.1,0,0,0-.05-.11l-1.86-1a.08.08,0,0,0-.12.06l-.52,1.7A.1.1,0,0,0,29.2,96.73ZM27.83,101l1.44.74a.07.07,0,0,0,.1,0l1.13-3.61s0-.08,0-.09L29,97.29a.07.07,0,0,0-.1,0l-1.13,3.61A.08.08,0,0,0,27.83,101ZM27,97.79l1.1.57a0,0,0,0,0,.07,0l0-.07a.05.05,0,0,0,0-.07l-1.1-.57a.06.06,0,0,0-.08,0v.07A.05.05,0,0,0,27,97.79Zm.91.94a.1.1,0,0,0,.13-.06l0-.13a.1.1,0,0,0-.05-.12l-1.95-1a.1.1,0,0,0-.14.06l0,.13a.11.11,0,0,0,.05.12m-.11.36,2,1a.09.09,0,0,0,.13-.06l0-.12a.11.11,0,0,0-.05-.12l-1.95-1a.1.1,0,0,0-.14.06l0,.12A.11.11,0,0,0,25.84,98.08Zm-.11.37,2,1a.1.1,0,0,0,.13-.06l0-.13a.11.11,0,0,0-.05-.12l-1.95-1a.1.1,0,0,0-.14.06l0,.13A.12.12,0,0,0,25.73,98.45Zm-.11.36,2,1a.09.09,0,0,0,.13-.06l0-.12a.11.11,0,0,0,0-.12l-2-1a.1.1,0,0,0-.14.06l0,.12A.11.11,0,0,0,25.62,98.81Zm-.11.37,2,1a.09.09,0,0,0,.13-.05l0-.13a.11.11,0,0,0-.05-.12l-1.95-1a.1.1,0,0,0-.14.06l0,.13A.12.12,0,0,0,25.51,99.18ZM26.6,95.6l2,1.06a.11.11,0,0,0,.14-.07l.56-1.86a.09.09,0,0,0-.05-.12l-2-1.06a.1.1,0,0,0-.14.07l-.56,1.86A.11.11,0,0,0,26.6,95.6Z"/><path class="cls-97" d="M28.69,103.54l1.09.91.2.17a3.59,3.59,0,0,1,.69-1.44,3,3,0,0,1,.84-.38.64.64,0,0,0,.36-.24,2.61,2.61,0,0,0,.36-2,1.09,1.09,0,0,0-.14-.46h0c-.13-.24-.3-.23-.3-.23l-.95.68c-.17.13-.39.38-.57.19s.45-.77.6-1.08-.14-.64-.27-.52A7.56,7.56,0,0,0,29.42,101C29.12,101.77,28.69,103.54,28.69,103.54Z"/><path class="cls-96" d="M29.53,103.67l.25.78.2.17a3.59,3.59,0,0,1,.69-1.44,3,3,0,0,1,.84-.38.64.64,0,0,0,.36-.24,2.61,2.61,0,0,0,.36-2,1.09,1.09,0,0,0-.14-.46h0s0,.19-.31.45a7.09,7.09,0,0,1-1,.65,2.93,2.93,0,0,0-.73,1.11C29.88,102.77,29.53,103.67,29.53,103.67Z"/><path class="cls-110" d="M30.19,104.59l.19-.6a.47.47,0,0,0,0-.35,2.87,2.87,0,0,0-.49-.77.76.76,0,0,0-.91-.15c-.1.07-.17.31-.24.46a1.53,1.53,0,0,0,0,.54s.4.6.44.65A10.37,10.37,0,0,0,30.19,104.59Z"/><path class="cls-92" d="M10.29,123.87c.75,4.11,1.29,9.2,1.29,9.2a80.26,80.26,0,0,0,.16,19.1,2.48,2.48,0,0,0,.74,1.66,2.07,2.07,0,0,0,1.75,0l.08,0c2.1-1.15,1.88-2.64,2.19-3.62,0-4-.42-13.69.42-15.83l.75-8.62-.28-6.17H9.85v0l0,0A6.23,6.23,0,0,0,10.29,123.87Z"/><path class="cls-91" d="M12.59,124A94.45,94.45,0,0,1,14.41,134a185.27,185.27,0,0,0-.1,19.81c2.1-1.15,1.88-2.64,2.19-3.62,0-4-.42-13.69.42-15.83l.75-8.62-.28-6.17H12.2A11.46,11.46,0,0,0,12.59,124Z"/><path class="cls-92" d="M13.08,121.57a11.91,11.91,0,0,0,1.63,3.94c.14.22.27.44.4.67s.39,1.48.85,3.33,1,4.18,1.4,6.16a86.29,86.29,0,0,0,.34,18.69,1.36,1.36,0,0,0,1,1.12,2.46,2.46,0,0,0,.83.09,2.1,2.1,0,0,0,.7-.17,5.63,5.63,0,0,0,2.12-2.49s0-12.5.68-15.78a13.54,13.54,0,0,0,.23-1.89c.12-2,.34-5.67.41-7.2a60.69,60.69,0,0,0,0-6.6l-6.18.08Z"/><path class="cls-91" d="M17.52,121.52c0,.37.06.61.06.61a15.45,15.45,0,0,0,.84,3.89,52.45,52.45,0,0,1,1.66,10c.08,1.91-.94,11-.56,19.6a2.1,2.1,0,0,0,.7-.17,5.63,5.63,0,0,0,2.12-2.49s0-12.5.68-15.78a13.54,13.54,0,0,0,.23-1.89c.12-2,.34-5.67.41-7.2a60.69,60.69,0,0,0,0-6.6Z"/><path class="cls-11" d="M9.08,104.14c1,3,1.56,8,1,10.07a37.63,37.63,0,0,0-1,5c.57,1.56,5.84,4.93,8.78,5.19a4.88,4.88,0,0,0,1.08,0,11.2,11.2,0,0,0,5-2.69s-.56-8.52-.91-14a31.66,31.66,0,0,0-1.1-7,7.12,7.12,0,0,0-.29-.82A12,12,0,0,0,19.24,98l0,0c-.8-.52-1.7-1.08-2.61-1.62h0c-1.21-.72-2.43-1.38-3.41-1.87l-.33-.16a7.29,7.29,0,0,0-1.5-.61c-1.38-.26-3.24.47-3.8,3S8.09,101.11,9.08,104.14Z"/><path class="cls-115" d="M19.25,114.17c.18,2.33-.17,8.13-.31,10.21a11.2,11.2,0,0,0,5-2.69s-.56-8.52-.91-14a31.66,31.66,0,0,0-1.1-7l-.47-.53H18.07s-1.78.37-1.13,4.41S19,111.32,19.25,114.17Z"/><path class="cls-116" d="M12.85,95.65a7.63,7.63,0,0,0,3.24,1.92,7.22,7.22,0,0,0,1.95.08,2.64,2.64,0,0,1,1.18.37l0,0h0l-.51-.77-.59-.38s-.87-.32-1.06-.41a2.64,2.64,0,0,0-.48-.08h0c-.52-.06-1.26-.11-1.37-.13a18.34,18.34,0,0,1-1.56-1s-.29-.46-.48-.77l-.33-.16A1,1,0,0,0,12.85,95.65Z"/><path class="cls-106" d="M11,89.2c.29,1.74,1.76,4.46,2.5,4.71a4,4,0,0,0,1.22.23,1.17,1.17,0,0,0,1.21-1,5.42,5.42,0,0,1,.5-1.57c.52-1,1.2-1.46,1.54-1.28s.31.79.31.79h.22s0-.2.05-.46.06-.6.07-.85a2.93,2.93,0,0,1,.6-1.8A6.84,6.84,0,0,0,20,86.49a2.84,2.84,0,0,0,.21-1.37h0A2.87,2.87,0,0,0,19,82.86c-1.68-1.23-5.19,1.06-6.49,2.14a4.52,4.52,0,0,0-1.45,2.07h0A4.38,4.38,0,0,0,11,89.2Z"/><path class="cls-6" d="M13.09,94.29l.33-.3a7.47,7.47,0,0,0,4.86,2.4,4.06,4.06,0,0,1,1,1.65l-.44-.28a1.92,1.92,0,0,0-.76-.3c-.18,0-.56,0-.56,0a7.74,7.74,0,0,1-4.36-2A.76.76,0,0,1,13.09,94.29Z"/><path class="cls-117" d="M20.94,151.8a.91.91,0,0,1-.11.16Z"/><path class="cls-117" d="M20.77,152a.24.24,0,0,0,.06-.08l-.11.14Z"/><path class="cls-11" d="M17.69,103c.33,1.91,4,7.47,4.13,7.69a25.41,25.41,0,0,0,1.82,2.6h0a3.38,3.38,0,0,0,1.13,1.07l.15,0a2,2,0,0,0,2.3-1.28,41.59,41.59,0,0,0,1.9-4.15,39,39,0,0,0,1.08-4.22,1.29,1.29,0,0,0-.13-.94l0-.07c-.2-.33-.48-.71-.73-.75-.46-.07-.55,0-.55,0s-.83,1.34-1.5,2.38a19.94,19.94,0,0,0-1.32,2.8c-.06.18-.1.28-.1.28-1.21-2.79-2.78-6.23-3.42-7.67a2.6,2.6,0,0,0-4.34-.65l-.05.07a1,1,0,0,0-.17.34h0C17.77,100.71,17.39,101.26,17.69,103Z"/><path class="cls-108" d="M11,89.2c.29,1.74,1.76,4.46,2.5,4.71a4,4,0,0,0,1.22.23,1.17,1.17,0,0,0,1.21-1,5.42,5.42,0,0,1,.5-1.57c.52-1,1.2-1.46,1.54-1.28s.31.79.31.79h.22s0-.2.05-.46.06-.6.07-.85a2.93,2.93,0,0,1,.6-1.8A6.84,6.84,0,0,0,20,86.49a2.84,2.84,0,0,0,.21-1.37,7.7,7.7,0,0,1-5.47,4.5c-4.08.86-3.7-2.38-3.67-2.54A4.38,4.38,0,0,0,11,89.2Z"/><path class="cls-118" d="M25.93,108.25c-.06.18-.1.28-.1.28a3.71,3.71,0,0,1,.32,1.69A2.11,2.11,0,0,0,25.93,108.25Z"/><path class="cls-13" d="M17.83,100.63h0a8.26,8.26,0,0,0,1.38,4.25c1.52,2.67,4.73,9,6.32,8.85.83-.09,2.68-4,3.37-5.86A31.35,31.35,0,0,0,30,103.77l0,.07a1.29,1.29,0,0,1,.13.94A39,39,0,0,1,29.12,109a41.59,41.59,0,0,1-1.9,4.15,2,2,0,0,1-2.3,1.28h0l-.15,0a3.38,3.38,0,0,1-1.13-1.07h0a25.41,25.41,0,0,1-1.82-2.6c-.16-.22-3.8-5.78-4.13-7.69S17.77,100.71,17.83,100.63Z"/></g></g></g></svg>
